<?xml version="1.0" encoding="utf-8"?>
<!-- Generator: Adobe Illustrator 23.0.4, SVG Export Plug-In . SVG Version: 6.00 Build 0)  -->
<svg version="1.1" id="Layer_1" xmlns="http://www.w3.org/2000/svg" xmlns:xlink="http://www.w3.org/1999/xlink" x="0px" y="0px"
	 viewBox="0 0 293 59" style="enable-background:new 0 0 293 59;" xml:space="preserve">
<g>
	<path d="M9.8662109,38.7885742c-0.8808594,0.7602539-1.7402344,1.4799805-2.5800781,2.159668
		c-0.8398438,0.6806641-1.6601562,1.3803711-2.4599609,2.1000977c-0.8808594-0.5595703-1.5703125-1.199707-2.0703125-1.9199219
		s-0.7304688-1.5996094-0.6894531-2.6401367c0.0791016-2.0791016,0.1201172-4.1699219,0.1201172-6.2700195s0-4.1894531,0-6.2700195
		c-0.0410156-1.199707-0.0507812-2.3896484-0.0302734-3.5698242c0.0195312-1.1791992,0.0302734-2.3496094,0.0302734-3.5102539
		c0-2.0395508,0.7392578-3.7993164,2.2197266-5.2797852c1.0390625-1.1191406,2.0996094-2.2202148,3.1796875-3.2998047
		c1.0800781-1.0800781,2.2197266-2.0795898,3.4199219-3c0.1591797-0.1201172,0.2998047-0.2402344,0.4199219-0.3603516
		c0.1201172-0.1196289,0.2597656-0.2592773,0.4199219-0.4199219c-1.1201172-0.7197266-2.1201172-0.7592773-3-0.1201172
		C8.6455078,6.5083008,8.4658203,6.6386719,8.3056641,6.7783203C8.1455078,6.9189453,7.9658203,7.0483398,7.765625,7.168457
		C7.5654297,7.2490234,7.3857422,7.2084961,7.2265625,7.0483398c-0.1201172-0.1201172-0.1201172-0.2792969,0-0.4799805
		c0.0791016-0.1201172,0.1689453-0.2294922,0.2695312-0.3300781C7.5957031,6.1391602,7.6855469,6.0488281,7.765625,5.9682617
		c0.7998047-0.6391602,1.5605469-1.2797852,2.2802734-1.9199219c0.7197266-0.6391602,1.4599609-1.2597656,2.2197266-1.8598633
		c1.7597656-1.4794922,3.5-1.4194336,5.2207031,0.1796875c0.7587891,0.6806641,1.4794922,1.4008789,2.1601562,2.1601562
		c0.6796875,0.7602539,1.2197266,1.640625,1.6191406,2.6401367c0.4404297,1.0004883,0.7207031,2.0800781,0.8408203,3.2397461
		c0.0791016,1.6005859,0.1591797,3.1801758,0.2392578,4.7402344s0.1396484,3.1201172,0.1806641,4.6801758
		c0.1201172,2.6005859,0.21875,5.1801758,0.2998047,7.7397461c0.0800781,2.5605469,0.1396484,5.1601562,0.1796875,7.7998047
		c0.0800781,1.0004883,0.4394531,1.8603516,1.0800781,2.5800781c0.1591797,0.1606445,0.3603516,0.4199219,0.6005859,0.7802734
		c-0.8007812,0.7197266-1.6201172,1.4204102-2.4599609,2.1000977c-0.8408203,0.6801758-1.6806641,1.4003906-2.5205078,2.159668
		c-0.640625-0.519043-1.1396484-1.059082-1.5-1.6201172c-0.3603516-0.5595703-0.5605469-1.2192383-0.5996094-1.9799805
		c-0.0410156-0.9194336-0.0605469-1.8598633-0.0605469-2.8198242s0-1.8994141,0-2.8198242
		c-0.0400391-0.199707-0.0595703-0.409668-0.0595703-0.6303711c0-0.2192383,0-0.449707,0-0.6899414
		c-0.2402344,0-0.4306641,0.0600586-0.5703125,0.1801758c-0.140625,0.1201172-0.2910156,0.2402344-0.4501953,0.3598633
		c-0.3203125,0.2402344-0.5996094,0.4902344-0.8398438,0.75c-0.2402344,0.2607422-0.5205078,0.4902344-0.8398438,0.6899414
		c-0.0810547,0.0810547-0.1904297,0.1005859-0.3300781,0.0600586c-0.140625-0.0390625-0.25-0.0600586-0.3300781-0.0600586
		c0-0.2397461,0.0195312-0.4199219,0.0605469-0.5400391c0-0.1196289,0.0791016-0.2592773,0.2392578-0.4199219
		c0.4804688-0.5996094,0.75-1.2597656,0.8105469-1.9799805c0.0595703-0.7197266-0.0302734-1.409668-0.2705078-2.0698242
		c-0.2392578-0.6601562-0.5996094-1.2602539-1.0800781-1.7998047c-0.4794922-0.5400391-1.0195312-0.909668-1.6201172-1.1103516
		c-0.5996094-0.199707-1.2197266-0.3598633-1.859375-0.4799805c-0.640625-0.1201172-1.28125-0.1396484-1.9199219-0.0600586
		c-0.3603516,0.0805664-0.5908203,0.1708984-0.6904297,0.2700195c-0.1005859,0.1005859-0.1494141,0.3300781-0.1494141,0.6899414
		c-0.0410156,1.2807617-0.0605469,2.550293-0.0605469,3.8100586c0,1.2602539-0.0205078,2.5302734-0.0595703,3.8100586
		c-0.0410156,0.6806641,0.0498047,1.3105469,0.2695312,1.8901367c0.2197266,0.5800781,0.6494141,1.090332,1.2900391,1.5297852
		c0.1201172,0.0805664,0.2294922,0.1904297,0.3300781,0.3300781C9.515625,38.4189453,9.6650391,38.5888672,9.8662109,38.7885742z
		 M16.8261719,21.8085938c0.0390625-0.159668,0.0693359-0.2900391,0.0898438-0.3901367
		c0.0195312-0.0996094,0.0302734-0.1894531,0.0302734-0.2700195c-0.0400391-1.0395508-0.0703125-2.0795898-0.0898438-3.1201172
		c-0.0205078-1.0395508-0.0703125-2.1000977-0.1503906-3.1796875c-0.0810547-0.7597656-0.2099609-1.5200195-0.3896484-2.2802734
		c-0.1806641-0.7592773-0.4501953-1.5-0.8105469-2.2197266c-0.2802734-0.5195312-0.7197266-1.1000977-1.3193359-1.7402344
		c-0.6005859-0.6391602-1.140625-1.0996094-1.6201172-1.3798828c-0.5605469,0.6806641-1.1611328,1.3300781-1.8007812,1.949707
		c-0.6396484,0.6206055-1.2402344,1.2705078-1.7998047,1.9501953c-0.8798828,1.0004883-1.3193359,2.1206055-1.3193359,3.3598633
		v7.2602539c0,0.3598633,0,0.7197266,0,1.0800781c0,0.3598633,0.0390625,0.7197266,0.1191406,1.0795898
		C8.4453125,23.46875,9.125,23.0385742,9.8056641,22.6181641c0.6796875-0.4199219,1.3808594-0.7695312,2.1005859-1.0498047
		c0.7998047-0.3598633,1.6201172-0.4892578,2.4599609-0.3901367C15.2060547,21.2788086,16.0253906,21.4887695,16.8261719,21.8085938
		z"/>
	<path d="M27.8652344,17.9082031c-0.2001953,0.0810547-0.3505859,0.1606445-0.4492188,0.2402344
		c-0.1005859,0.0805664-0.2314453,0.140625-0.390625,0.1801758c-0.2001953,0.0805664-0.3808594,0.0400391-0.5400391-0.1201172
		c-0.0791016-0.159668-0.0595703-0.3393555,0.0605469-0.5400391c0.0390625-0.0795898,0.0986328-0.159668,0.1796875-0.2402344
		c0.0800781-0.0795898,0.1591797-0.1591797,0.2402344-0.2397461c0.7197266-0.5595703,1.4257812-1.1401367,2.1191406-1.7402344
		c0.6933594-0.5996094,1.3964844-1.1791992,2.1083984-1.7397461c0.6738281-0.5595703,1.2275391-0.75,1.6621094-0.5703125
		c0.4355469,0.1801758,0.7128906,0.7109375,0.8320312,1.590332c0.0390625,0.2802734,0.0683594,0.6503906,0.0888672,1.1098633
		c0.0195312,0.4604492,0.0498047,0.8701172,0.0888672,1.2299805c0.4404297-0.3598633,0.8701172-0.6992188,1.2900391-1.0200195
		c0.4199219-0.3198242,0.8300781-0.6391602,1.2304688-0.9599609c0.3193359-0.2397461,0.6494141-0.4892578,0.9902344-0.75
		c0.3388672-0.2597656,0.6689453-0.5297852,0.9892578-0.8100586c0.9599609-0.7197266,1.9599609-0.7797852,3-0.1796875
		c0.5195312,0.3203125,0.9902344,0.6699219,1.4101562,1.0498047c0.4199219,0.3803711,0.7695312,0.8305664,1.0498047,1.3500977
		c0.2001953,0.3598633,0.3203125,0.75,0.3603516,1.1699219c0.0390625,0.4199219,0.0800781,0.8500977,0.1201172,1.2900391
		c0.0791016,0.4404297,0.109375,0.8701172,0.0898438,1.2900391c-0.0205078,0.4199219-0.0302734,0.8500977-0.0302734,1.2900391
		c0.0400391,0.2006836,0.0605469,0.3701172,0.0605469,0.5097656c0,0.140625,0.0390625,0.2905273,0.1201172,0.4501953
		c0.0791016,0.3598633,0.1894531,0.5800781,0.3300781,0.659668c0.1396484,0.0810547,0.3691406,0.0405273,0.6894531-0.1196289
		l0.2998047-0.1201172c0.0800781,0,0.1806641,0,0.3007812,0c0.1191406,0,0.1992188,0.0400391,0.2392578,0.1201172
		c0.0800781,0.1601562,0.0605469,0.340332-0.0595703,0.5400391c-0.1201172,0.2001953-0.2802734,0.3598633-0.4804688,0.4799805
		c-1.3603516,1.199707-2.7207031,2.3203125-4.0800781,3.3598633c-0.0800781,0.1201172-0.2392578,0.2607422-0.4794922,0.4199219
		c-0.4003906,0.2006836-0.7802734,0.2802734-1.1396484,0.2402344c-0.3603516-0.0395508-0.640625-0.2597656-0.8408203-0.6601562
		c-0.1601562-0.3198242-0.2802734-0.6694336-0.359375-1.050293c-0.0810547-0.3793945-0.1601562-0.75-0.2402344-1.1098633
		c-0.0810547-0.4394531-0.1103516-0.8999023-0.0898438-1.3798828c0.0195312-0.4799805,0.0302734-0.9394531,0.0302734-1.3798828
		c-0.0810547-1.8798828-0.9814453-3.1396484-2.7001953-3.7802734c-0.5605469-0.199707-1.0605469-0.1591797-1.5,0.1201172
		c-0.4404297,0.2802734-0.6601562,0.7407227-0.6601562,1.3798828c-0.0400391,2.7602539-0.1005859,5.5605469-0.1796875,8.3999023
		c-0.0810547,2.8408203-0.0214844,5.6401367,0.1796875,8.4003906c0,0.2006836,0,0.3803711,0,0.5400391
		c0,0.1601562,0.0390625,0.340332,0.1201172,0.5400391c0.0791016,0.3999023,0.1992188,0.6401367,0.359375,0.7197266
		c0.1601562,0.0805664,0.4404297,0.0600586,0.8408203-0.0600586c0.0791016-0.0390625,0.1591797-0.0898438,0.2392578-0.1499023
		s0.1601562-0.0898438,0.2402344-0.0898438c0.1591797,0,0.3193359,0.0805664,0.4804688,0.2397461
		c0.0390625,0.1201172,0.0195312,0.2802734-0.0605469,0.4799805c-0.0800781,0.1201172-0.2402344,0.2607422-0.4794922,0.4199219
		c-0.6806641,0.5610352-1.3486328,1.1308594-2.0039062,1.7099609c-0.65625,0.5805664-1.3203125,1.1503906-1.9921875,1.7104492
		l-0.5341797,0.3598633c-0.5546875,0.3203125-1.0693359,0.4106445-1.5439453,0.2700195
		c-0.4755859-0.1396484-0.8125-0.5297852-1.0087891-1.1699219c-0.1992188-0.7998047-0.296875-1.5395508-0.296875-2.2202148
		V20.1884766c0-0.2792969,0-0.5493164,0-0.8100586c0-0.2597656-0.0214844-0.5297852-0.0605469-0.8100586
		c0-0.0795898-0.0302734-0.1694336-0.0898438-0.2700195C27.9550781,18.1992188,27.9052734,18.0688477,27.8652344,17.9082031z"/>
	<path d="M49.1660156,6.0283203c-0.2011719,0.0805664-0.3603516,0.1499023-0.4804688,0.2099609
		s-0.2402344,0.1108398-0.3603516,0.1499023c-0.2392578,0-0.3994141-0.0795898-0.4794922-0.2397461
		c-0.0810547-0.1591797-0.0605469-0.3198242,0.0595703-0.4799805c0.0400391-0.1201172,0.1601562-0.2402344,0.3603516-0.3598633
		c0.6796875-0.5600586,1.3701172-1.1298828,2.0703125-1.7099609c0.6992188-0.5795898,1.3886719-1.1704102,2.0693359-1.7700195
		c0.7597656-0.6396484,1.359375-0.8198242,1.8007812-0.5400391c0.4394531,0.2802734,0.7587891,0.800293,0.9599609,1.5600586
		c0.1191406,0.5605469,0.1894531,1.1098633,0.2099609,1.6499023c0.0195312,0.5400391,0.0498047,1.090332,0.0898438,1.6499023
		c0,0.5205078,0.2597656,0.8999023,0.7802734,1.1401367C57.125,7.6088867,57.9755859,7.7485352,58.7958984,7.7084961
		c0.8193359-0.0395508,1.6289062-0.3598633,2.4296875-0.9599609c0.1591797-0.1201172,0.3193359-0.2495117,0.4804688-0.3901367
		c0.1591797-0.1396484,0.3388672-0.0898438,0.5400391,0.1499023c0.1992188,0.2402344,0.2099609,0.440918,0.0292969,0.6000977
		c-0.1796875,0.1601562-0.3505859,0.2998047-0.5097656,0.4199219c-1,0.7602539-1.9599609,1.5703125-2.8798828,2.4301758
		c-0.9208984,0.8603516-1.9404297,1.5898438-3.0605469,2.1899414C55.625,12.2685547,55.515625,12.418457,55.4960938,12.5986328
		c-0.0214844,0.1796875-0.0302734,0.3701172-0.0302734,0.5698242c-0.0810547,1.640625-0.1308594,3.2905273-0.1503906,4.949707
		c-0.0205078,1.6606445-0.0507812,3.3105469-0.0898438,4.9501953c0,2.2001953,0.0097656,4.3901367,0.0302734,6.5698242
		c0.0195312,2.1806641,0.0292969,4.3706055,0.0292969,6.5703125c0,0.2006836,0,0.3803711,0,0.5400391
		c0,0.1601562,0.0205078,0.340332,0.0605469,0.5400391c0.1201172,0.9204102,0.5791016,1.199707,1.3798828,0.8398438
		c0.1591797-0.0795898,0.2900391-0.1591797,0.3896484-0.2402344c0.0996094-0.0795898,0.2304688-0.1591797,0.390625-0.2397461
		c0.1992188-0.0795898,0.3798828-0.0395508,0.5400391,0.1201172c0.0791016,0.0805664,0.0791016,0.2602539,0,0.5400391
		c-0.0410156,0.0805664-0.1601562,0.2202148-0.3603516,0.4199219c-0.7597656,0.6000977-1.5,1.2207031-2.2197266,1.8598633
		c-0.7197266,0.6401367-1.4804688,1.2602539-2.2802734,1.8598633c-0.4794922,0.3208008-1,0.5205078-1.5595703,0.6000977
		c-0.5605469,0.0795898-1.0009766-0.0297852-1.3203125-0.3300781c-0.3203125-0.2998047-0.5009766-0.7290039-0.5400391-1.2900391
		c-0.0400391-0.9194336-0.0703125-1.8193359-0.0898438-2.699707c-0.0205078-0.8793945-0.0302734-1.7792969-0.0302734-2.7001953
		c-0.0400391-4.5195312-0.0400391-9.0600586,0-13.6201172c0-1.5991211,0.0195312-3.2294922,0.0605469-4.8896484
		c0.0390625-1.659668,0.0595703-3.3095703,0.0595703-4.9501953c0.0390625-0.5595703-0.0107422-0.9194336-0.1503906-1.0800781
		c-0.140625-0.1591797-0.4902344-0.2792969-1.0498047-0.3598633c-0.4794922-0.0795898-0.9501953-0.0898438-1.4101562-0.0297852
		c-0.4599609,0.0595703-0.8496094,0.3100586-1.1699219,0.75c-0.0800781,0.0400391-0.1298828,0.0805664-0.1494141,0.1196289
		c-0.0205078,0.0405273-0.0703125,0.0600586-0.1503906,0.0600586c-0.2802734,0-0.4599609-0.0390625-0.5400391-0.1201172
		c-0.0800781-0.0390625-0.1201172-0.1196289-0.1201172-0.2397461s0.0400391-0.2192383,0.1201172-0.300293
		c0.1201172-0.1591797,0.2490234-0.3193359,0.3896484-0.4799805c0.140625-0.1591797,0.3095703-0.2998047,0.5107422-0.4199219
		c0.4794922-0.4394531,0.96875-0.859375,1.4697266-1.2597656c0.5-0.3994141,0.9902344-0.8193359,1.4697266-1.2602539
		c0.3994141-0.3193359,0.609375-0.5791016,0.6298828-0.7797852C49.6357422,6.96875,49.4853516,6.5888672,49.1660156,6.0283203z"/>
	<path d="M78.0253906,28.7084961c0-0.7202148-0.0107422-1.449707-0.0302734-2.1899414
		c-0.0205078-0.7397461-0.0107422-1.4702148,0.0302734-2.1899414c0.0390625-1.159668,0.2490234-2.2397461,0.6279297-3.2402344
		c0.3789062-0.9995117,0.9863281-1.8994141,1.8242188-2.7001953c0.8369141-0.7993164,1.7041016-1.5991211,2.6015625-2.3999023
		c0.8974609-0.7998047,1.8242188-1.5390625,2.78125-2.2197266c1.6748047-1.1196289,3.3095703-1.0996094,4.9052734,0.0600586
		c1.2753906,1,2.4111328,2.090332,3.4091797,3.2700195c0.9960938,1.1801758,1.7539062,2.5498047,2.2734375,4.1098633
		c0.3183594,0.8398438,0.5273438,1.6796875,0.6269531,2.5200195c0.0996094,0.8398438,0.1494141,1.7006836,0.1494141,2.5800781
		v7.2597656c0,1.1606445-0.2294922,2.2304688-0.6875,3.2099609c-0.4589844,0.9804688-1.1865234,1.8105469-2.1826172,2.4902344
		c-0.5585938,0.4003906-1.1074219,0.800293-1.6455078,1.199707c-0.5380859,0.4003906-1.0869141,0.8203125-1.6445312,1.2602539
		c-0.7578125,0.6401367-1.5664062,1.0302734-2.4228516,1.1699219c-0.8574219,0.140625-1.7646484,0.1499023-2.7207031,0.0297852
		c-1.1181641-0.1196289-2.1445312-0.4589844-3.0810547-1.0200195c-0.9375-0.5595703-1.7441406-1.2392578-2.4228516-2.0400391
		c-0.6787109-0.7993164-1.2265625-1.6591797-1.6445312-2.5795898c-0.4179688-0.9199219-0.6679688-1.8393555-0.7470703-2.7602539
		c-0.0410156-0.199707-0.0810547-0.3901367-0.1201172-0.5698242c-0.0410156-0.1801758-0.0605469-0.3696289-0.0605469-0.5703125
		v-4.6796875H78.0253906z M91.4648438,38.0683594c0.0390625-0.199707,0.0693359-0.3691406,0.0898438-0.5097656
		c0.0195312-0.1396484,0.0302734-0.2700195,0.0302734-0.3901367c0-1.4399414,0.0195312-2.8798828,0.0595703-4.3198242
		c0.0400391-1.4404297,0.0205078-2.8803711-0.0595703-4.3203125c-0.0810547-1.159668-0.2822266-2.2797852-0.6044922-3.3598633
		s-0.8867188-2.0795898-1.6933594-3c-0.4443359-0.5195312-0.8779297-1.0200195-1.2998047-1.5
		c-0.4238281-0.4799805-0.8769531-0.9394531-1.3603516-1.3798828c-0.2421875-0.2402344-0.5244141-0.4501953-0.8466797-0.6303711
		c-0.3232422-0.1796875-0.6455078-0.3496094-0.9677734-0.5097656c-0.4833984-0.2792969-0.7861328-0.1396484-0.9072266,0.4199219
		c-0.0810547,0.2402344-0.140625,0.4902344-0.1806641,0.75c-0.0400391,0.2607422-0.0595703,0.5307617-0.0595703,0.8100586
		c-0.0810547,1.5600586-0.140625,3.1201172-0.1796875,4.6801758c-0.0410156,1.5595703-0.0410156,3.1196289,0,4.6796875
		c0.0390625,1.5205078,0.3613281,2.890625,0.9658203,4.1103516c0.6054688,1.2202148,1.5322266,2.2900391,2.7822266,3.2099609
		c0.6445312,0.4404297,1.3095703,0.7402344,1.9951172,0.8999023C89.9121094,37.8686523,90.6591797,37.9887695,91.4648438,38.0683594
		z"/>
	<path d="M107.3037109,11.0083008c-0.0400391,0.2006836-0.0703125,0.5908203-0.0898438,1.1699219
		c-0.0205078,0.5805664-0.0400391,1.2705078-0.0595703,2.0703125c-0.0205078,0.800293-0.0205078,1.640625,0,2.5200195
		c0.0195312,0.8803711,0.0498047,1.7202148,0.0898438,2.5200195c0.0390625,0.800293,0.0800781,1.5,0.1201172,2.0996094
		c0.0390625,0.6000977,0.0791016,1.0004883,0.1201172,1.2001953c0.0791016-0.0795898,0.1796875-0.1396484,0.2998047-0.1801758
		c0.1201172-0.0390625,0.2197266-0.0991211,0.2998047-0.1796875c0.8398438-0.6796875,1.6796875-1.0200195,2.5205078-1.0200195
		c0.8398438,0,1.71875,0.2202148,2.6396484,0.659668c0.1591797,0.0810547,0.3095703,0.1503906,0.4501953,0.2104492
		c0.1396484,0.0595703,0.2890625,0.1298828,0.4501953,0.2099609c0.5595703,0.2006836,1.1396484,0.140625,1.7392578-0.1801758
		c0.1201172-0.0795898,0.25-0.1499023,0.390625-0.2099609c0.1396484-0.0600586,0.2695312,0.0102539,0.3896484,0.2099609
		c0.1201172,0.1601562,0.1396484,0.2998047,0.0595703,0.4199219s-0.1601562,0.2202148-0.2392578,0.300293
		c-0.8007812,0.6801758-1.6005859,1.3496094-2.4003906,2.0097656c-0.8007812,0.6601562-1.6201172,1.3105469-2.4599609,1.9501953
		c-0.8007812,0.6401367-1.7207031,0.7001953-2.7597656,0.1796875c-0.2011719-0.1196289-0.4111328-0.2294922-0.6298828-0.3300781
		c-0.2207031-0.0991211-0.4707031-0.2099609-0.75-0.3295898c-0.0410156,0.1601562-0.0703125,0.2905273-0.0898438,0.3896484
		c-0.0214844,0.1005859-0.0302734,0.1904297-0.0302734,0.2700195c0.0390625,1.5600586,0.0791016,3.1201172,0.1201172,4.6801758
		c0.0390625,1.5600586,0.0390625,3.1201172,0,4.6801758c0,1.7602539-0.1201172,3.4404297-0.3603516,5.0395508
		c-0.1601562,1.1206055-0.4902344,2.1396484-0.9902344,3.0600586c-0.5,0.9199219-1.2099609,1.7197266-2.1298828,2.4003906
		c-0.5205078,0.3598633-1.0107422,0.7392578-1.4697266,1.1396484c-0.4599609,0.3994141-0.9101562,0.7998047-1.3505859,1.2001953
		c-0.1191406,0.0795898-0.2304688,0.1591797-0.3291016,0.2397461c-0.1005859,0.0800781-0.1904297,0.159668-0.2705078,0.2402344
		c-0.1601562,0.0795898-0.3203125,0.0795898-0.4794922,0c-0.1201172-0.1201172-0.1806641-0.2802734-0.1806641-0.4799805
		c0.0400391-0.1201172,0.1396484-0.300293,0.2998047-0.5400391c0.4404297-0.8007812,0.7705078-1.6000977,0.9902344-2.3999023
		c0.2197266-0.8007812,0.3691406-1.640625,0.4501953-2.5200195c0.1992188-2.7602539,0.2695312-5.4902344,0.2099609-8.1899414
		c-0.0595703-2.7001953-0.1298828-5.4301758-0.2099609-8.1899414c-0.0810547-2.199707-0.1201172-4.3999023-0.1201172-6.6000977
		c0-2.199707-0.0400391-4.3999023-0.1201172-6.6000977c-0.0400391-0.8793945,0.1201172-1.6699219,0.4804688-2.3701172
		c0.359375-0.6992188,0.8193359-1.3291016,1.3798828-1.8901367c0.5595703-0.5595703,1.1796875-1.0893555,1.8603516-1.5898438
		c0.6796875-0.4995117,1.3193359-1.0292969,1.9199219-1.5898438c0.7197266-0.6796875,1.4697266-1.0595703,2.25-1.1401367
		c0.7792969-0.0795898,1.609375,0.0405273,2.4892578,0.3598633c0.3203125,0.1201172,0.6298828,0.2607422,0.9306641,0.4204102
		c0.2998047,0.1601562,0.609375,0.2998047,0.9296875,0.4199219c1.4404297,0.7197266,2.7792969,0.5605469,4.0195312-0.4799805
		c0.1601562-0.159668,0.3603516-0.300293,0.6005859-0.4199219c0.1591797-0.0800781,0.3193359-0.0395508,0.4794922,0.1196289
		c0.1201172,0.2006836,0.1201172,0.3603516,0,0.4799805c-0.1191406,0.2006836-0.2998047,0.4003906-0.5400391,0.6000977
		c-0.7998047,0.6806641-1.5703125,1.3408203-2.3095703,1.9799805c-0.7402344,0.640625-1.5107422,1.2807617-2.3095703,1.9199219
		c-1.5605469,1.3203125-3.2402344,1.5209961-5.0400391,0.6000977c-0.2011719-0.1201172-0.4111328-0.2192383-0.6308594-0.2998047
		C107.7138672,11.1689453,107.5039062,11.0888672,107.3037109,11.0083008z"/>
	<path d="M144.5029297,6.9282227c0.2001953-0.1591797,0.3798828-0.2998047,0.5400391-0.4199219
		s0.3007812-0.2192383,0.4199219-0.2998047c0.7597656-0.6000977,1.5-1.2094727,2.2207031-1.8300781
		c0.7197266-0.6196289,1.4589844-1.2299805,2.2197266-1.8300781c0.2792969-0.199707,0.5898438-0.3901367,0.9296875-0.5698242
		c0.3398438-0.1801758,0.6699219-0.3496094,0.9902344-0.5102539c0.4804688-0.199707,0.9394531-0.2597656,1.3798828-0.1796875
		c0.4394531,0.0805664,0.859375,0.2802734,1.2597656,0.5996094c0.7597656,0.5610352,1.4599609,1.1806641,2.1005859,1.8603516
		c0.6396484,0.6806641,1.1787109,1.4399414,1.6201172,2.2797852c0.4394531,0.8007812,0.8398438,1.6201172,1.1992188,2.4599609
		c0.3603516,0.840332,0.7001953,1.7006836,1.0205078,2.5800781c1.2392578,3.0805664,1.1191406,6.2006836-0.3603516,9.3598633
		c-0.6396484,1.4008789-1.4003906,2.690918-2.2792969,3.8701172c-0.8808594,1.1801758-1.9003906,2.25-3.0605469,3.2099609
		c-0.5205078,0.440918-1.0195312,0.8608398-1.5,1.2602539c-0.4794922,0.4003906-0.9804688,0.8203125-1.5,1.2597656
		c-0.2802734,0.2402344-0.5,0.4106445-0.6601562,0.5102539c-0.1601562,0.1000977-0.2998047,0.1499023-0.4199219,0.1499023
		s-0.2402344-0.0693359-0.359375-0.2099609c-0.1201172-0.1396484-0.3007812-0.3496094-0.5400391-0.6298828
		c-0.4414062-0.4804688-0.9003906-0.8598633-1.3798828-1.1401367c-0.4804688-0.2792969-1.0410156-0.4199219-1.6806641-0.4199219
		c-0.5605469,0.0400391-1.0195312,0.1899414-1.3798828,0.449707c-0.3603516,0.2607422-0.7001953,0.550293-1.0195312,0.8701172
		c-0.1201172,0.1201172-0.1806641,0.2607422-0.1806641,0.4199219c0.0400391,0.7202148,0.0498047,1.4907227,0.0302734,2.3100586
		c-0.0205078,0.8203125,0.0097656,1.5703125,0.0898438,2.25c0.1591797,1.4008789,0.8193359,2.6005859,1.9804688,3.6000977
		l0.7792969,0.7797852c-0.8798828,0.7602539-1.7304688,1.4907227-2.5498047,2.1899414
		c-0.8203125,0.7006836-1.6494141,1.4101562-2.4902344,2.1303711c-0.4404297-0.199707-0.8095703-0.4594727-1.109375-0.7802734
		c-0.2998047-0.3198242-0.5908203-0.6391602-0.8701172-0.9599609c-1-1.2797852-1.4609375-2.7993164-1.3798828-4.5600586
		c0-1.5195312,0-3.0693359,0-4.6499023c0-1.5795898,0.0195312-3.1293945,0.0595703-4.6499023
		c0.0400391-2.8398438,0.0693359-5.6494141,0.0898438-8.4301758c0.0205078-2.7797852,0.0498047-5.5893555,0.0908203-8.4296875
		c0-0.9199219-0.0605469-1.800293-0.1806641-2.6401367c-0.1601562-0.8398438-0.5605469-1.3999023-1.1992188-1.6801758
		c-0.640625-0.2792969-1.3203125-0.199707-2.0400391,0.2402344c-0.0810547,0.0400391-0.140625,0.0805664-0.1806641,0.1196289
		c-0.0400391,0.0405273-0.0996094,0.0600586-0.1796875,0.0600586c-0.2802734,0.0805664-0.4794922,0.0600586-0.5996094-0.0600586
		c-0.0410156-0.0795898-0.0507812-0.1796875-0.0302734-0.2998047c0.0195312-0.1201172,0.0498047-0.199707,0.0898438-0.2397461
		c0.9199219-0.7998047,1.8300781-1.5800781,2.7304688-2.340332c0.8994141-0.7592773,1.8291016-1.4794922,2.7890625-2.159668
		c0.5195312-0.3994141,1.1201172-0.5,1.8007812-0.300293c0.6796875,0.2006836,1.2392578,0.5805664,1.6796875,1.1401367
		c0.4794922,0.6000977,0.7587891,1.4003906,0.8398438,2.3999023C144.3232422,5.5483398,144.3828125,6.1689453,144.5029297,6.9282227
		z M154.2236328,24.5083008c0.0791016-0.1201172,0.1396484-0.2192383,0.1796875-0.2998047
		c0.0390625-0.0795898,0.0996094-0.159668,0.1796875-0.2402344c1.359375-3,1.4404297-6.0390625,0.2402344-9.1196289
		c-0.2802734-0.6396484-0.5498047-1.2797852-0.8095703-1.9204102c-0.2607422-0.6391602-0.5507812-1.2792969-0.8701172-1.9199219
		c-0.4003906-0.8793945-0.890625-1.6694336-1.4707031-2.3701172c-0.5800781-0.6992188-1.25-1.3496094-2.0097656-1.949707
		c-1.0400391-0.7998047-2.0996094-0.7998047-3.1796875,0c-0.2011719,0.1601562-0.4003906,0.3300781-0.6005859,0.5097656
		c-0.2001953,0.1801758-0.3994141,0.3505859-0.5996094,0.5102539c-0.3203125,0.2006836-0.5400391,0.4404297-0.6601562,0.7197266
		c-0.1201172,0.2802734-0.1796875,0.6206055-0.1796875,1.0200195c-0.0810547,2.800293-0.1308594,5.6005859-0.1503906,8.4003906
		c-0.0205078,2.800293-0.0703125,5.6201172-0.1494141,8.4599609v2.0400391c0.3994141-0.3198242,0.75-0.609375,1.0498047-0.8701172
		c0.2998047-0.2597656,0.609375-0.5297852,0.9296875-0.8100586c0.4804688-0.3994141,0.9501953-0.7895508,1.4101562-1.1699219
		c0.4589844-0.3798828,0.9501953-0.75,1.4697266-1.1103516c0.6796875-0.5595703,1.4003906-0.8696289,2.1601562-0.9296875
		s1.5400391,0.1499023,2.3398438,0.6298828c0.0800781,0.0805664,0.1806641,0.1499023,0.3007812,0.2099609
		C153.9228516,24.3583984,154.0625,24.4287109,154.2236328,24.5083008z"/>
	<path d="M169.2832031,18.9282227c-0.6806641-0.5595703-1.2207031-0.8491211-1.6201172-0.8696289
		c-0.4003906-0.0200195-0.9003906,0.1899414-1.5,0.6298828c-0.3203125,0.2397461-0.6210938,0.4799805-0.9003906,0.7197266
		c-0.2802734,0.2402344-0.5800781,0.5009766-0.8994141,0.7802734c-0.0810547,0.0805664-0.1708984,0.1601562-0.2705078,0.2397461
		c-0.1005859,0.0805664-0.2099609,0.140625-0.3300781,0.1801758c-0.2392578,0.0805664-0.4599609,0.0600586-0.6601562-0.0600586
		c-0.0400391-0.0395508-0.0595703-0.1201172-0.0595703-0.2397461c0-0.1201172,0.0390625-0.2197266,0.1201172-0.300293
		c0.0390625-0.1591797,0.1787109-0.3198242,0.4179688-0.4799805c1.15625-0.9194336,2.2919922-1.8598633,3.4091797-2.8198242
		c1.1152344-0.9599609,2.2519531-1.8994141,3.4072266-2.8203125c0.6777344-0.5595703,1.2568359-0.8193359,1.734375-0.7797852
		c0.4785156,0.0405273,1.0957031,0.2998047,1.8535156,0.7797852c0.9169922,0.640625,1.7333984,1.390625,2.4521484,2.25
		c0.7167969,0.8608398,1.4541016,1.6904297,2.2119141,2.4902344c0.1201172,0.1601562,0.2392578,0.3208008,0.359375,0.4799805
		c0.1191406,0.1601562,0.2587891,0.2998047,0.4179688,0.4199219c0.796875,0.7602539,1.1962891,1.7202148,1.1962891,2.8798828
		v10.5600586c0,0.5605469,0.0302734,1.1206055,0.0898438,1.6801758c0.0605469,0.5605469,0.109375,1.1201172,0.1503906,1.6801758
		c0.0390625,0.1196289,0.0693359,0.25,0.0898438,0.3896484c0.0195312,0.140625,0.0693359,0.2905273,0.1494141,0.4501953
		c0.1601562,0.4404297,0.3398438,0.7104492,0.5400391,0.8100586c0.2001953,0.1000977,0.5195312,0.050293,0.9599609-0.1499023
		c0.1601562-0.0800781,0.3095703-0.1401367,0.4501953-0.1801758c0.1396484-0.0395508,0.2705078,0.0400391,0.390625,0.2397461
		c0.1191406,0.2006836,0.1191406,0.3603516,0,0.4799805c-0.1201172,0.1201172-0.2402344,0.2402344-0.3603516,0.3603516
		c-0.2001953,0.2006836-0.4111328,0.3803711-0.6298828,0.5400391c-0.2207031,0.1601562-0.4501953,0.340332-0.6904297,0.5400391
		c-0.5205078,0.4404297-1.0175781,0.8696289-1.4931641,1.2900391c-0.4755859,0.4199219-0.9902344,0.8500977-1.5429688,1.2895508
		c-1.2275391,0.9995117-2.2167969,0.7802734-2.96875-0.659668c-0.1181641-0.2792969-0.2080078-0.5595703-0.2666016-0.840332
		c-0.0605469-0.2792969-0.1298828-0.5791016-0.2080078-0.8999023c-0.0810547-0.2792969-0.1308594-0.5595703-0.1503906-0.8398438
		c-0.0205078-0.2792969-0.0507812-0.5795898-0.0898438-0.8999023c-0.3603516,0.2397461-0.6210938,0.4199219-0.7802734,0.5400391
		c-0.6806641,0.5605469-1.3701172,1.1098633-2.0693359,1.6499023c-0.7011719,0.5400391-1.390625,1.090332-2.0703125,1.6499023
		c-0.4804688,0.3208008-0.9404297,0.6000977-1.3798828,0.8398438c-0.9208984,0.4399414-1.7607422,0.3198242-2.5205078-0.3598633
		c-0.2001953-0.1591797-0.3798828-0.3198242-0.5400391-0.4799805c-0.1601562-0.1591797-0.3398438-0.3198242-0.5400391-0.4799805
		c-1.1992188-1.0800781-1.7998047-2.4199219-1.7998047-4.0200195c0-1.5600586-0.0205078-3.1894531-0.0595703-4.8901367
		c-0.0410156-1.699707-0.1005859-3.3300781-0.1806641-4.8896484c-0.1191406-2.0795898,0.6201172-3.8193359,2.2207031-5.2202148
		c0.4794922-0.4394531,0.9492188-0.8491211,1.4101562-1.2299805c0.4589844-0.3798828,0.9091797-0.7895508,1.3496094-1.2299805
		c0.1992188-0.199707,0.3896484-0.3994141,0.5703125-0.6000977
		C168.8330078,19.3286133,169.0429688,19.1289062,169.2832031,18.9282227z M170.4228516,19.7084961
		c-1.0800781,0.9204102-1.6201172,2.0200195-1.6201172,3.2998047c0.0400391,1.7202148,0.0800781,3.5102539,0.1201172,5.3701172
		c0.0390625,1.8598633,0.0605469,3.6503906,0.0605469,5.3701172c0.0390625,1.4003906,0.5791016,2.5600586,1.6191406,3.4799805
		c0.7207031,0.6806641,1.2998047,1.0302734,1.7402344,1.0498047c0.4394531,0.0205078,1.0595703-0.2700195,1.8603516-0.8701172
		c0.0390625,0,0.0595703-0.0195312,0.0595703-0.0595703c0.5195312-0.2402344,0.7802734-0.7202148,0.7802734-1.4404297
		c-0.0400391-0.5595703-0.0595703-1.0996094-0.0595703-1.6196289c0-0.5195312,0-1.0400391,0-1.5600586v-6.8999023
		c0-0.6396484-0.2011719-1.159668-0.6005859-1.5600586c-0.5205078-0.5600586-1.0195312-1.1298828-1.5-1.7099609
		c-0.4794922-0.5795898-0.9599609-1.1494141-1.4394531-1.7099609c-0.2011719-0.199707-0.3710938-0.3901367-0.5107422-0.5703125
		C170.7919922,20.0986328,170.6230469,19.9091797,170.4228516,19.7084961z"/>
	<path d="M189.0820312,10.6484375c-0.7998047-0.7998047-1.5595703-1.5693359-2.2792969-2.3100586
		c-0.7207031-0.7397461-1.4804688-1.4897461-2.2802734-2.25c1.5595703-1.5991211,3.0996094-3.2597656,4.6201172-4.9799805
		c0.7998047,0.8398438,1.5791016,1.6303711,2.3398438,2.3701172c0.7597656,0.7407227,1.5195312,1.4697266,2.2802734,2.1899414
		c-0.8007812,0.8398438-1.5810547,1.6601562-2.3398438,2.4599609
		C190.6621094,8.9291992,189.8818359,9.769043,189.0820312,10.6484375z M192.6220703,38.1884766h0.4199219
		c0.1601562-0.0795898,0.3095703-0.1293945,0.4501953-0.1499023c0.1396484-0.0200195,0.25,0.0703125,0.3300781,0.2700195
		c0.0400391,0.0805664,0.0195312,0.2001953-0.0595703,0.3598633c-0.0810547,0.1601562-0.1601562,0.2802734-0.2402344,0.3598633
		c-1.4804688,1.3203125-2.9609375,2.5605469-4.4404297,3.7202148c-0.9199219,0.7197266-1.5800781,0.5595703-1.9794922-0.4799805
		c-0.2402344-0.6396484-0.3603516-1.3203125-0.3603516-2.0400391c-0.0400391-0.9199219-0.0292969-1.8095703,0.0302734-2.6699219
		c0.0595703-0.8598633,0.0898438-1.7495117,0.0898438-2.6704102c-0.0400391-2.3999023-0.0703125-4.8989258-0.0898438-7.5
		c-0.0205078-2.5996094-0.0507812-5.0996094-0.0898438-7.5c0-0.3193359-0.0205078-0.6298828-0.0605469-0.9296875
		c-0.0400391-0.300293-0.2197266-0.5703125-0.5400391-0.8100586c-0.1601562,0.0805664-0.2998047,0.1499023-0.4199219,0.2099609
		s-0.2607422,0.1303711-0.4199219,0.2099609c-0.0800781,0.0405273-0.1601562,0.0405273-0.2392578,0
		c-0.0810547-0.0395508-0.1611328-0.0991211-0.2402344-0.1801758c-0.0810547-0.1591797-0.0810547-0.3193359,0-0.4799805
		c0.0791016-0.1196289,0.2402344-0.2998047,0.4794922-0.5400391l4.3203125-3.5996094
		c0.9990234-0.7597656,1.7792969-0.6000977,2.3398438,0.4799805c0.2792969,0.5605469,0.4199219,1.0800781,0.4199219,1.5600586
		c0.0400391,3.5996094,0.0498047,7.3198242,0.0302734,11.159668
		C192.3320312,30.8085938,192.421875,34.5488281,192.6220703,38.1884766z"/>
	<path d="M205.1611328,37.9482422c0.1601562-0.0390625,0.2900391-0.0795898,0.390625-0.1196289
		c0.0986328-0.0395508,0.2099609-0.0600586,0.3300781-0.0600586c0.2392578,0,0.3994141,0.0805664,0.4794922,0.2397461
		c0.0390625,0.0805664,0.0195312,0.2607422-0.0595703,0.5400391c-0.0810547,0.1201172-0.1806641,0.2202148-0.2998047,0.300293
		c-1.4013672,1.2802734-2.8603516,2.5600586-4.3808594,3.8398438c-0.4404297,0.3598633-0.8603516,0.4995117-1.2597656,0.4199219
		c-0.4003906-0.0795898-0.7001953-0.3994141-0.8994141-0.9599609c-0.2802734-0.6796875-0.4208984-1.4399414-0.4208984-2.2802734
		c-0.0800781-3.2397461-0.0800781-6.4799805,0-9.7197266c0-1.159668,0.0097656-2.3701172,0.0302734-3.6298828
		c0.0195312-1.2602539,0.0498047-2.4697266,0.0898438-3.6303711c0-0.5595703-0.0205078-1.1098633-0.0595703-1.6499023
		c-0.0400391-0.5400391-0.0810547-1.0893555-0.1201172-1.6499023c-0.0810547-0.3994141-0.1601562-0.6796875-0.2402344-0.8398438
		c-0.2392578-0.6000977-0.6396484-0.7998047-1.2001953-0.6000977c-0.0800781,0.0400391-0.1699219,0.0805664-0.2695312,0.1201172
		c-0.1005859,0.0400391-0.1904297,0.0600586-0.2695312,0.0600586c-0.0810547,0.0400391-0.1611328,0.0400391-0.2402344,0
		c-0.0810547-0.0395508-0.140625-0.0800781-0.1806641-0.1201172c-0.0791016-0.159668-0.0791016-0.3198242,0-0.4799805
		c0.0800781-0.1201172,0.1699219-0.2197266,0.2705078-0.300293c0.0996094-0.0795898,0.1894531-0.1591797,0.2695312-0.2397461
		c0.6796875-0.5595703,1.3300781-1.1098633,1.9501953-1.6499023s1.2695312-1.0893555,1.9501953-1.6503906
		c0.0800781-0.0795898,0.1591797-0.1396484,0.2402344-0.1796875c0.7587891-0.6000977,1.3798828-0.7802734,1.859375-0.5400391
		c0.4804688,0.2397461,0.8603516,0.7001953,1.140625,1.3798828c0.1591797,0.3598633,0.2490234,0.7407227,0.2695312,1.1401367
		c0.0195312,0.4003906,0.0693359,0.8007812,0.1503906,1.199707c0.0390625,0.1606445,0.0595703,0.3208008,0.0595703,0.4799805
		c0,0.1606445,0.0195312,0.3808594,0.0605469,0.6601562c0.1992188-0.1201172,0.3691406-0.2294922,0.5097656-0.3300781
		c0.1396484-0.0991211,0.2900391-0.2099609,0.4501953-0.3300781c0.6386719-0.519043,1.2695312-1.0795898,1.8896484-1.6796875
		s1.2695312-1.159668,1.9501953-1.6801758c0.6796875-0.5595703,1.2900391-0.8295898,1.8300781-0.8100586
		c0.5400391,0.0209961,1.1494141,0.3105469,1.8300781,0.8701172c0.4394531,0.3598633,0.8701172,0.8007812,1.2900391,1.3198242
		c0.4199219,0.5205078,0.8095703,1.0004883,1.1699219,1.4404297c0.1992188,0.2802734,0.3388672,0.590332,0.4199219,0.9296875
		c0.0791016,0.340332,0.1396484,0.6704102,0.1796875,0.9902344c0.1591797,2.3203125,0.2402344,4.7397461,0.2402344,7.2597656
		s-0.0400391,4.9604492-0.1201172,7.3203125c-0.0400391,0.6401367-0.0595703,1.2700195-0.0595703,1.8896484
		c0,0.6206055,0.0390625,1.2299805,0.1201172,1.8300781c0.0390625,0.5605469,0.1396484,0.8803711,0.2998047,0.9599609
		c0.1591797,0.0805664,0.4794922,0.0805664,0.9599609,0c0.3193359-0.0795898,0.5400391-0.0600586,0.6601562,0.0600586
		c0.1591797,0.1601562,0.1992188,0.2998047,0.1191406,0.4199219s-0.1796875,0.2202148-0.2998047,0.300293
		c-0.7597656,0.6401367-1.5097656,1.2802734-2.25,1.9199219c-0.7402344,0.6401367-1.5097656,1.2807617-2.3095703,1.9199219
		c-1.1201172,0.8398438-1.9804688,0.6196289-2.5800781-0.6601562c-0.2011719-0.519043-0.2998047-1.0395508-0.2998047-1.5600586
		c0-1.7592773,0.0087891-3.5400391,0.0292969-5.3398438s0.0302734-3.5791016,0.0302734-5.3398438
		c0-0.9599609-0.0205078-1.9697266-0.0595703-3.0302734c-0.0410156-1.059082-0.0410156-2.0698242,0-3.0297852
		c0.0390625-1.2797852-0.2802734-2.3100586-0.9599609-3.0898438c-0.6806641-0.7802734-1.5-1.4702148-2.4599609-2.0703125
		c-0.4804688-0.2792969-0.9814453-0.2192383-1.5,0.1801758c-0.8408203,0.5605469-1.2607422,1.3603516-1.2607422,2.3999023
		c0.0800781,2.3999023,0.1103516,4.8701172,0.0908203,7.4101562c-0.0214844,2.5405273-0.0302734,5.0097656-0.0302734,7.409668
		c0,0.3208008,0.0302734,0.6601562,0.0898438,1.0200195C204.8310547,37.2885742,204.9609375,37.6289062,205.1611328,37.9482422z"/>
	<path d="M220.9414062,6.0283203c-0.2001953,0.0805664-0.359375,0.1499023-0.4794922,0.2099609
		s-0.2402344,0.1108398-0.3603516,0.1499023c-0.2402344,0-0.4003906-0.0795898-0.4794922-0.2397461
		c-0.0810547-0.1591797-0.0605469-0.3198242,0.0595703-0.4799805c0.0390625-0.1201172,0.1591797-0.2402344,0.3603516-0.3598633
		c0.6796875-0.5600586,1.3691406-1.1298828,2.0693359-1.7099609c0.7001953-0.5795898,1.3896484-1.1704102,2.0703125-1.7700195
		c0.7597656-0.6396484,1.359375-0.8198242,1.7998047-0.5400391c0.4404297,0.2802734,0.7597656,0.800293,0.9599609,1.5600586
		c0.1201172,0.5605469,0.1894531,1.1098633,0.2099609,1.6499023s0.0498047,1.090332,0.0908203,1.6499023
		c0,0.5205078,0.2587891,0.8999023,0.7792969,1.1401367c0.8798828,0.3203125,1.7294922,0.4599609,2.5498047,0.4199219
		c0.8203125-0.0395508,1.6298828-0.3598633,2.4306641-0.9599609c0.1591797-0.1201172,0.3193359-0.2495117,0.4794922-0.3901367
		c0.1601562-0.1396484,0.3398438-0.0898438,0.5400391,0.1499023c0.2001953,0.2402344,0.2099609,0.440918,0.0302734,0.6000977
		c-0.1796875,0.1601562-0.3505859,0.2998047-0.5097656,0.4199219c-1.0009766,0.7602539-1.9609375,1.5703125-2.8798828,2.4301758
		c-0.9208984,0.8603516-1.9414062,1.5898438-3.0605469,2.1899414c-0.2001953,0.1201172-0.3105469,0.2700195-0.3300781,0.4501953
		c-0.0205078,0.1796875-0.0292969,0.3701172-0.0292969,0.5698242c-0.0810547,1.640625-0.1308594,3.2905273-0.1503906,4.949707
		c-0.0205078,1.6606445-0.0507812,3.3105469-0.0898438,4.9501953c0,2.2001953,0.0087891,4.3901367,0.0302734,6.5698242
		c0.0195312,2.1806641,0.0292969,4.3706055,0.0292969,6.5703125c0,0.2006836,0,0.3803711,0,0.5400391
		c0,0.1601562,0.0195312,0.340332,0.0605469,0.5400391c0.1201172,0.9204102,0.5791016,1.199707,1.3798828,0.8398438
		c0.1591797-0.0795898,0.2890625-0.1591797,0.3896484-0.2402344c0.0996094-0.0795898,0.2294922-0.1591797,0.390625-0.2397461
		c0.1992188-0.0795898,0.3789062-0.0395508,0.5390625,0.1201172c0.0800781,0.0805664,0.0800781,0.2602539,0,0.5400391
		c-0.0400391,0.0805664-0.1601562,0.2202148-0.359375,0.4199219c-0.7607422,0.6000977-1.5,1.2207031-2.2197266,1.8598633
		c-0.7207031,0.6401367-1.4804688,1.2602539-2.2802734,1.8598633c-0.4804688,0.3208008-1,0.5205078-1.5605469,0.6000977
		s-1-0.0297852-1.3193359-0.3300781c-0.3212891-0.2998047-0.5009766-0.7290039-0.5400391-1.2900391
		c-0.0410156-0.9194336-0.0703125-1.8193359-0.0898438-2.699707c-0.0214844-0.8793945-0.0302734-1.7792969-0.0302734-2.7001953
		c-0.0400391-4.5195312-0.0400391-9.0600586,0-13.6201172c0-1.5991211,0.0195312-3.2294922,0.0595703-4.8896484
		c0.0400391-1.659668,0.0605469-3.3095703,0.0605469-4.9501953c0.0390625-0.5595703-0.0107422-0.9194336-0.1503906-1.0800781
		c-0.140625-0.1591797-0.4902344-0.2792969-1.0498047-0.3598633c-0.4804688-0.0795898-0.9501953-0.0898438-1.4101562-0.0297852
		c-0.4599609,0.0595703-0.8505859,0.3100586-1.1699219,0.75c-0.0810547,0.0400391-0.1298828,0.0805664-0.1503906,0.1196289
		c-0.0205078,0.0405273-0.0703125,0.0600586-0.1494141,0.0600586c-0.2802734,0-0.4609375-0.0390625-0.5400391-0.1201172
		c-0.0810547-0.0390625-0.1201172-0.1196289-0.1201172-0.2397461s0.0390625-0.2192383,0.1201172-0.300293
		c0.1201172-0.1591797,0.2490234-0.3193359,0.3896484-0.4799805c0.1396484-0.1591797,0.3095703-0.2998047,0.5097656-0.4199219
		c0.4804688-0.4394531,0.9697266-0.859375,1.4707031-1.2597656c0.4990234-0.3994141,0.9902344-0.8193359,1.4697266-1.2602539
		c0.3994141-0.3193359,0.609375-0.5791016,0.6298828-0.7797852C221.4111328,6.96875,221.2617188,6.5888672,220.9414062,6.0283203z"
		/>
	<path d="M237.9208984,10.6484375c-0.7998047-0.7998047-1.5595703-1.5693359-2.2792969-2.3100586
		c-0.7207031-0.7397461-1.4804688-1.4897461-2.2802734-2.25c1.5595703-1.5991211,3.0996094-3.2597656,4.6201172-4.9799805
		c0.7998047,0.8398438,1.5791016,1.6303711,2.3398438,2.3701172c0.7597656,0.7407227,1.5195312,1.4697266,2.2802734,2.1899414
		c-0.8007812,0.8398438-1.5810547,1.6601562-2.3398438,2.4599609
		C239.5009766,8.9291992,238.7207031,9.769043,237.9208984,10.6484375z M241.4609375,38.1884766h0.4199219
		c0.1601562-0.0795898,0.3095703-0.1293945,0.4501953-0.1499023c0.1396484-0.0200195,0.25,0.0703125,0.3300781,0.2700195
		c0.0400391,0.0805664,0.0195312,0.2001953-0.0595703,0.3598633c-0.0810547,0.1601562-0.1601562,0.2802734-0.2402344,0.3598633
		c-1.4804688,1.3203125-2.9609375,2.5605469-4.4404297,3.7202148c-0.9199219,0.7197266-1.5800781,0.5595703-1.9794922-0.4799805
		c-0.2402344-0.6396484-0.3603516-1.3203125-0.3603516-2.0400391c-0.0400391-0.9199219-0.0292969-1.8095703,0.0302734-2.6699219
		c0.0595703-0.8598633,0.0898438-1.7495117,0.0898438-2.6704102c-0.0400391-2.3999023-0.0703125-4.8989258-0.0898438-7.5
		c-0.0205078-2.5996094-0.0507812-5.0996094-0.0898438-7.5c0-0.3193359-0.0205078-0.6298828-0.0605469-0.9296875
		c-0.0400391-0.300293-0.2197266-0.5703125-0.5400391-0.8100586c-0.1601562,0.0805664-0.2998047,0.1499023-0.4199219,0.2099609
		s-0.2607422,0.1303711-0.4199219,0.2099609c-0.0800781,0.0405273-0.1601562,0.0405273-0.2392578,0
		c-0.0810547-0.0395508-0.1611328-0.0991211-0.2402344-0.1801758c-0.0810547-0.1591797-0.0810547-0.3193359,0-0.4799805
		c0.0791016-0.1196289,0.2402344-0.2998047,0.4794922-0.5400391l4.3203125-3.5996094
		c0.9990234-0.7597656,1.7792969-0.6000977,2.3398438,0.4799805c0.2792969,0.5605469,0.4199219,1.0800781,0.4199219,1.5600586
		c0.0400391,3.5996094,0.0498047,7.3198242,0.0302734,11.159668
		C241.1708984,30.8085938,241.2607422,34.5488281,241.4609375,38.1884766z"/>
	<path d="M254.0009766,37.9482422c0.1601562-0.0390625,0.2900391-0.0795898,0.390625-0.1196289
		c0.0986328-0.0395508,0.2099609-0.0600586,0.3300781-0.0600586c0.2392578,0,0.3994141,0.0805664,0.4794922,0.2397461
		c0.0390625,0.0805664,0.0195312,0.2607422-0.0595703,0.5400391c-0.0810547,0.1201172-0.1806641,0.2202148-0.2998047,0.300293
		c-1.4013672,1.2802734-2.8603516,2.5600586-4.3808594,3.8398438c-0.4404297,0.3598633-0.8603516,0.4995117-1.2597656,0.4199219
		c-0.4003906-0.0795898-0.7001953-0.3994141-0.8994141-0.9599609c-0.2802734-0.6796875-0.4208984-1.4399414-0.4208984-2.2802734
		c-0.0800781-3.2397461-0.0800781-6.4799805,0-9.7197266c0-1.159668,0.0097656-2.3701172,0.0302734-3.6298828
		c0.0195312-1.2602539,0.0498047-2.4697266,0.0898438-3.6303711c0-0.5595703-0.0205078-1.1098633-0.0595703-1.6499023
		c-0.0400391-0.5400391-0.0810547-1.0893555-0.1201172-1.6499023c-0.0810547-0.3994141-0.1601562-0.6796875-0.2402344-0.8398438
		c-0.2392578-0.6000977-0.6396484-0.7998047-1.2001953-0.6000977c-0.0800781,0.0400391-0.1699219,0.0805664-0.2695312,0.1201172
		c-0.1005859,0.0400391-0.1904297,0.0600586-0.2695312,0.0600586c-0.0810547,0.0400391-0.1611328,0.0400391-0.2402344,0
		c-0.0810547-0.0395508-0.140625-0.0800781-0.1806641-0.1201172c-0.0791016-0.159668-0.0791016-0.3198242,0-0.4799805
		c0.0800781-0.1201172,0.1699219-0.2197266,0.2705078-0.300293c0.0996094-0.0795898,0.1894531-0.1591797,0.2695312-0.2397461
		c0.6796875-0.5595703,1.3300781-1.1098633,1.9501953-1.6499023s1.2695312-1.0893555,1.9501953-1.6503906
		c0.0800781-0.0795898,0.1591797-0.1396484,0.2402344-0.1796875c0.7587891-0.6000977,1.3798828-0.7802734,1.859375-0.5400391
		c0.4804688,0.2397461,0.8603516,0.7001953,1.140625,1.3798828c0.1591797,0.3598633,0.2490234,0.7407227,0.2695312,1.1401367
		c0.0195312,0.4003906,0.0693359,0.8007812,0.1503906,1.199707c0.0390625,0.1606445,0.0595703,0.3208008,0.0595703,0.4799805
		c0,0.1606445,0.0195312,0.3808594,0.0605469,0.6601562c0.1992188-0.1201172,0.3691406-0.2294922,0.5097656-0.3300781
		c0.1396484-0.0991211,0.2900391-0.2099609,0.4501953-0.3300781c0.6386719-0.519043,1.2695312-1.0795898,1.8896484-1.6796875
		s1.2695312-1.159668,1.9501953-1.6801758c0.6796875-0.5595703,1.2900391-0.8295898,1.8300781-0.8100586
		c0.5400391,0.0209961,1.1494141,0.3105469,1.8300781,0.8701172c0.4394531,0.3598633,0.8701172,0.8007812,1.2900391,1.3198242
		c0.4199219,0.5205078,0.8095703,1.0004883,1.1699219,1.4404297c0.1992188,0.2802734,0.3388672,0.590332,0.4199219,0.9296875
		c0.0791016,0.340332,0.1396484,0.6704102,0.1796875,0.9902344c0.1591797,2.3203125,0.2402344,4.7397461,0.2402344,7.2597656
		s-0.0400391,4.9604492-0.1201172,7.3203125c-0.0400391,0.6401367-0.0595703,1.2700195-0.0595703,1.8896484
		c0,0.6206055,0.0390625,1.2299805,0.1201172,1.8300781c0.0390625,0.5605469,0.1396484,0.8803711,0.2998047,0.9599609
		c0.1591797,0.0805664,0.4794922,0.0805664,0.9599609,0c0.3193359-0.0795898,0.5400391-0.0600586,0.6601562,0.0600586
		c0.1591797,0.1601562,0.1992188,0.2998047,0.1191406,0.4199219s-0.1796875,0.2202148-0.2998047,0.300293
		c-0.7597656,0.6401367-1.5097656,1.2802734-2.25,1.9199219c-0.7402344,0.6401367-1.5097656,1.2807617-2.3095703,1.9199219
		c-1.1201172,0.8398438-1.9804688,0.6196289-2.5800781-0.6601562c-0.2011719-0.519043-0.2998047-1.0395508-0.2998047-1.5600586
		c0-1.7592773,0.0087891-3.5400391,0.0292969-5.3398438s0.0302734-3.5791016,0.0302734-5.3398438
		c0-0.9599609-0.0205078-1.9697266-0.0595703-3.0302734c-0.0410156-1.059082-0.0410156-2.0698242,0-3.0297852
		c0.0390625-1.2797852-0.2802734-2.3100586-0.9599609-3.0898438c-0.6806641-0.7802734-1.5-1.4702148-2.4599609-2.0703125
		c-0.4804688-0.2792969-0.9814453-0.2192383-1.5,0.1801758c-0.8408203,0.5605469-1.2607422,1.3603516-1.2607422,2.3999023
		c0.0800781,2.3999023,0.1103516,4.8701172,0.0908203,7.4101562c-0.0214844,2.5405273-0.0302734,5.0097656-0.0302734,7.409668
		c0,0.3208008,0.0302734,0.6601562,0.0898438,1.0200195C253.6708984,37.2885742,253.8007812,37.6289062,254.0009766,37.9482422z"/>
	<path d="M283.6396484,13.2285156c0.7207031,0.7602539,1.4199219,1.5205078,2.1005859,2.2797852
		c0.5595703,0.640625,1.0996094,1.2900391,1.6201172,1.9501953c0.5195312,0.659668,1.0595703,1.3105469,1.6201172,1.949707
		c1.0390625,1.1606445,1.5595703,2.5410156,1.5595703,4.1401367c0.0390625,1.9199219,0.0595703,3.6704102,0.0595703,5.25
		c0,1.5805664,0,3.3300781,0,5.25c-0.0400391,1.5600586-0.0800781,3.1201172-0.1191406,4.6801758
		c-0.0410156,1.5600586-0.0605469,3.1201172-0.0605469,4.6796875c0,1.2797852-0.1904297,2.5595703-0.5703125,3.840332
		c-0.3798828,1.2797852-0.9892578,2.3793945-1.8291016,3.2998047c-0.5615234,0.6796875-1.140625,1.3198242-1.7402344,1.9199219
		c-0.6005859,0.6000977-1.2207031,1.2001953-1.8603516,1.800293c-0.5205078,0.4799805-1.0498047,0.9394531-1.5898438,1.3798828
		c-0.5400391,0.4394531-1.0898438,0.8793945-1.6503906,1.3198242c-0.7597656,0.7592773-1.6796875,0.9995117-2.7597656,0.7202148
		c-0.4003906-0.1201172-0.7802734-0.2402344-1.1396484-0.3598633c-0.3603516-0.1201172-0.7412109-0.2402344-1.140625-0.3603516
		c-0.2802734-0.0805664-0.5498047-0.1499023-0.8095703-0.2099609c-0.2607422-0.0600586-0.5507812-0.1103516-0.8701172-0.1499023
		c-1.0800781-0.1601562-2.0400391,0.1201172-2.8798828,0.8398438c-0.1201172,0.1201172-0.2402344,0.2197266-0.3603516,0.300293
		c-0.1201172,0.0795898-0.2392578,0.1591797-0.359375,0.2397461c-0.5605469-0.2397461-0.6601562-0.5400391-0.2998047-0.8999023
		c1.0390625-0.8398438,2.0693359-1.6801758,3.0898438-2.5200195c1.0195312-0.8398438,2.0693359-1.6601562,3.1494141-2.4599609
		c0.5195312-0.4003906,1.0898438-0.5800781,1.7099609-0.5400391c0.6201172,0.0395508,1.2304688,0.1591797,1.8300781,0.3598633
		c0.3994141,0.0800781,0.7802734,0.1894531,1.140625,0.3300781c0.359375,0.1396484,0.7392578,0.2700195,1.1396484,0.3901367
		c0.4394531,0.1591797,0.7802734,0.0195312,1.0195312-0.4199219c0.7207031-1.2001953,1.0800781-2.480957,1.0800781-3.840332
		c0-1.1201172,0.0097656-2.3305664,0.0302734-3.6298828c0.0195312-1.300293,0.0302734-2.5292969,0.0302734-3.6899414v-1.6801758
		c-0.2402344,0.2006836-0.4609375,0.3808594-0.6601562,0.5400391c-0.2001953,0.1606445-0.4003906,0.3208008-0.5996094,0.4799805
		c-0.6806641,0.640625-1.4306641,1.1503906-2.25,1.5302734c-0.8203125,0.3803711-1.6904297,0.6704102-2.6103516,0.8701172
		c-0.5605469,0.1196289-1.1005859,0.1499023-1.6201172,0.0898438c-0.5205078-0.0600586-1-0.2700195-1.4404297-0.6298828
		c-1.7197266-1.159668-3.0703125-2.5292969-4.0498047-4.1103516c-0.9804688-1.5795898-1.4697266-3.4291992-1.4697266-5.5498047
		c0-1.2392578,0.0195312-2.2895508,0.0595703-3.1499023c0.0400391-0.8598633,0.0800781-1.8901367,0.1201172-3.090332
		c0.0400391-0.7592773,0.3603516-1.4594727,0.9599609-2.0996094c0.3203125-0.3603516,0.6503906-0.7202148,0.9902344-1.0800781
		s0.6904297-0.6992188,1.0498047-1.0200195c1.5195312-1.4794922,3.0693359-2.9399414,4.6503906-4.3798828
		c1.5800781-1.4399414,3.2294922-2.7993164,4.9501953-4.0800781
		C283.0195312,13.6289062,283.2802734,13.4682617,283.6396484,13.2285156z M279.2001953,18.5083008
		c-0.4404297,0.440918-0.8505859,0.8203125-1.2304688,1.1401367c-0.3798828,0.3208008-0.75,0.6601562-1.109375,1.0200195
		c-0.640625,0.6401367-0.9599609,1.4003906-0.9599609,2.2797852c0,1.1606445-0.0205078,2.3100586-0.0605469,3.4501953
		s-0.0800781,2.2900391-0.1201172,3.4501953c0,1.6796875,0.3496094,3.0205078,1.0507812,4.0195312
		c0.6992188,1.0004883,1.6884766,2.0400391,2.9697266,3.1201172c1.2792969,1.0405273,2.6396484,1.3203125,4.0800781,0.840332
		c0.5195312-0.199707,0.8398438-0.3500977,0.9599609-0.4501953c0.1201172-0.0996094,0.1796875-0.4291992,0.1796875-0.9902344
		c0-1.7592773-0.0097656-3.3295898-0.0302734-4.7099609c-0.0205078-1.3798828-0.0292969-2.9492188-0.0292969-4.7099609
		c0-1.1191406-0.3808594-2.1196289-1.140625-3c-0.5996094-0.6796875-1.1904297-1.3891602-1.7695312-2.1298828
		c-0.5800781-0.7397461-1.1699219-1.4702148-1.7705078-2.1899414c-0.1601562-0.1591797-0.3203125-0.3300781-0.4794922-0.5102539
		C279.5800781,18.9584961,279.3994141,18.7485352,279.2001953,18.5083008z"/>
</g>
</svg>
