<?xml version="1.0" encoding="utf-8"?>
<!-- Generator: Adobe Illustrator 23.0.4, SVG Export Plug-In . SVG Version: 6.00 Build 0)  -->
<svg version="1.1" id="Layer_1" xmlns="http://www.w3.org/2000/svg" xmlns:xlink="http://www.w3.org/1999/xlink" x="0px" y="0px"
	 viewBox="0 0 258 59" style="enable-background:new 0 0 258 59;" xml:space="preserve">
<g>
	<path d="M15.3198242,36.5083008c0.4399414-0.7197266,0.8701172-1.9291992,1.2900391-3.6298828
		c0.4199219-1.699707,0.7700195-3.4892578,1.050293-5.3701172c0.2792969-1.8793945,0.4291992-3.6899414,0.449707-5.4296875
		c0.0200195-1.7402344-0.1499023-3.0302734-0.5097656-3.8701172c-0.1201172,0.0400391-0.230957,0.0898438-0.3300781,0.1499023
		c-0.1000977,0.0600586-0.2099609,0.1108398-0.3300781,0.1499023c-0.0805664,0-0.1904297,0.0102539-0.3300781,0.0302734
		c-0.140625,0.0205078-0.25-0.0097656-0.3300781-0.090332c-0.1601562-0.1196289-0.2001953-0.2397461-0.1196289-0.3598633
		c0.0795898-0.1201172,0.1591797-0.2397461,0.2397461-0.3598633c0.0795898-0.0795898,0.1396484-0.1293945,0.1801758-0.1499023
		c0.0390625-0.0200195,0.0991211-0.0698242,0.1796875-0.1503906c0.7202148-0.5996094,1.4404297-1.2089844,2.1601562-1.8295898
		c0.7202148-0.6201172,1.4599609-1.2304688,2.2202148-1.8300781c0.1591797-0.159668,0.3598633-0.300293,0.6000977-0.4199219
		c0.5996094-0.2797852,1.0395508-0.159668,1.3198242,0.3598633c0.1201172,0.2006836,0.2099609,0.4199219,0.2700195,0.659668
		c0.0600586,0.2402344,0.1293945,0.5009766,0.2099609,0.7802734c0.199707,1.1606445,0.2895508,2.3007812,0.2700195,3.4199219
		c-0.0205078,1.1201172-0.1108398,2.2602539-0.2700195,3.4199219c-0.2402344,1.840332-0.550293,3.7202148-0.9301758,5.6401367
		c-0.3803711,1.9199219-0.9296875,3.7407227-1.6499023,5.4599609c-0.8398438,2.0805664-1.8803711,3.8203125-3.1201172,5.2202148
		c-1.2402344,1.4003906-2.7207031,2.800293-4.4399414,4.199707c-1.0405273,0.7592773-1.9799805,0.6601562-2.8198242-0.2998047
		c-0.2802734-0.3994141-0.5004883-0.7998047-0.6601562-1.2001953c-0.7197266-1.5195312-1.3198242-3.109375-1.7998047-4.7700195
		c-0.4799805-1.6591797-0.8999023-3.3496094-1.2602539-5.0698242C6.5,29.4492188,6.1699219,27.7285156,5.8701172,26.0083008
		c-0.300293-1.7192383-0.6508789-3.3994141-1.050293-5.0400391c-0.1601562-0.6796875-0.3999023-1.359375-0.7197266-2.0400391
		c-0.1606445-0.3193359-0.3208008-0.4995117-0.4799805-0.5400391c-0.1606445-0.0390625-0.4199219-0.0195312-0.7802734,0.0600586
		c-0.0805664,0.0405273-0.1899414,0.0600586-0.3300781,0.0600586c-0.140625,0-0.25-0.0390625-0.3295898-0.1201172
		c-0.1606445-0.1591797-0.199707-0.2998047-0.1201172-0.4199219c0.0795898-0.1196289,0.1801758-0.2192383,0.2998047-0.2998047
		c0.7998047-0.6796875,1.5996094-1.3500977,2.3999023-2.0102539c0.7998047-0.659668,1.5996094-1.3291016,2.4003906-2.0097656
		c0.3193359-0.2402344,0.609375-0.3496094,0.8696289-0.3300781c0.2597656,0.0205078,0.5498047,0.1708984,0.8701172,0.4501953
		c0.3198242,0.2802734,0.5795898,0.590332,0.7802734,0.9296875c0.199707,0.340332,0.3598633,0.7304688,0.4799805,1.1699219
		c0.2397461,1.0410156,0.4799805,2.0507812,0.7197266,3.0302734c0.2402344,0.9804688,0.4799805,1.9902344,0.7202148,3.0297852
		c0.4394531,1.7607422,0.8491211,3.6103516,1.2299805,5.550293c0.3793945,1.9404297,0.7890625,3.7900391,1.2299805,5.5498047
		C14.3393555,34.1889648,14.7592773,35.3486328,15.3198242,36.5083008z"/>
	<path d="M33.0800781,18.9282227c-0.6806641-0.5595703-1.2207031-0.8491211-1.6201172-0.8696289
		c-0.4003906-0.0200195-0.8999023,0.1899414-1.5,0.6298828c-0.3208008,0.2397461-0.6206055,0.4799805-0.8999023,0.7197266
		c-0.2807617,0.2402344-0.5805664,0.5009766-0.9003906,0.7802734c-0.0805664,0.0805664-0.1704102,0.1601562-0.2700195,0.2397461
		c-0.1000977,0.0805664-0.2099609,0.140625-0.3295898,0.1801758c-0.2402344,0.0805664-0.4604492,0.0600586-0.6601562-0.0600586
		c-0.0405273-0.0395508-0.0600586-0.1201172-0.0600586-0.2397461c0-0.1201172,0.0395508-0.2197266,0.1201172-0.300293
		c0.0390625-0.1591797,0.1787109-0.3198242,0.4179688-0.4799805c1.1557617-0.9194336,2.2919922-1.8598633,3.4086914-2.8198242
		c1.1157227-0.9599609,2.2519531-1.8994141,3.4077148-2.8203125c0.6782227-0.5595703,1.2563477-0.8193359,1.734375-0.7797852
		c0.4785156,0.0405273,1.0961914,0.2998047,1.8535156,0.7797852c0.9169922,0.640625,1.7333984,1.390625,2.4516602,2.25
		c0.7172852,0.8608398,1.4550781,1.6904297,2.2124023,2.4902344c0.1201172,0.1601562,0.2392578,0.3208008,0.359375,0.4799805
		c0.1186523,0.1601562,0.2587891,0.2998047,0.4179688,0.4199219c0.796875,0.7602539,1.1962891,1.7202148,1.1962891,2.8798828
		v10.5600586c0,0.5605469,0.0297852,1.1206055,0.0898438,1.6801758c0.0600586,0.5605469,0.1098633,1.1201172,0.1499023,1.6801758
		c0.0395508,0.1196289,0.0693359,0.25,0.090332,0.3896484c0.0195312,0.140625,0.0693359,0.2905273,0.1499023,0.4501953
		c0.1591797,0.4404297,0.3393555,0.7104492,0.5400391,0.8100586c0.199707,0.1000977,0.519043,0.050293,0.9599609-0.1499023
		c0.1591797-0.0800781,0.309082-0.1401367,0.449707-0.1801758c0.1401367-0.0395508,0.2700195,0.0400391,0.3901367,0.2397461
		c0.1201172,0.2006836,0.1201172,0.3603516,0,0.4799805C47.1196289,38.4882812,47,38.6083984,46.8798828,38.7285156
		c-0.2006836,0.2006836-0.4106445,0.3803711-0.6298828,0.5400391c-0.2207031,0.1601562-0.4501953,0.340332-0.6899414,0.5400391
		c-0.5205078,0.4404297-1.0185547,0.8696289-1.4936523,1.2900391c-0.4750977,0.4199219-0.9902344,0.8500977-1.5429688,1.2895508
		c-1.2275391,0.9995117-2.2163086,0.7802734-2.9682617-0.659668c-0.1191406-0.2792969-0.2080078-0.5595703-0.2670898-0.840332
		c-0.0600586-0.2792969-0.1293945-0.5791016-0.2080078-0.8999023c-0.0810547-0.2792969-0.1303711-0.5595703-0.1503906-0.8398438
		c-0.0205078-0.2792969-0.050293-0.5795898-0.0898438-0.8999023c-0.3598633,0.2397461-0.6206055,0.4199219-0.7797852,0.5400391
		c-0.6806641,0.5605469-1.3706055,1.1098633-2.0703125,1.6499023c-0.7001953,0.5400391-1.3901367,1.090332-2.0698242,1.6499023
		c-0.4799805,0.3208008-0.9404297,0.6000977-1.3798828,0.8398438c-0.9208984,0.4399414-1.7607422,0.3198242-2.5200195-0.3598633
		c-0.2006836-0.1591797-0.3808594-0.3198242-0.5400391-0.4799805c-0.1606445-0.1591797-0.340332-0.3198242-0.5400391-0.4799805
		c-1.2001953-1.0800781-1.800293-2.4199219-1.800293-4.0200195c0-1.5600586-0.0205078-3.1894531-0.0595703-4.8901367
		c-0.0405273-1.699707-0.1005859-3.3300781-0.1801758-4.8896484c-0.1201172-2.0795898,0.6196289-3.8193359,2.2197266-5.2202148
		c0.4799805-0.4394531,0.949707-0.8491211,1.4101562-1.2299805c0.4594727-0.3798828,0.909668-0.7895508,1.3500977-1.2299805
		c0.199707-0.199707,0.3901367-0.3994141,0.5698242-0.6000977C32.6298828,19.3286133,32.8398438,19.1289062,33.0800781,18.9282227z
		 M34.2197266,19.7084961c-1.0800781,0.9204102-1.6201172,2.0200195-1.6201172,3.2998047
		c0.0395508,1.7202148,0.0800781,3.5102539,0.1201172,5.3701172c0.0395508,1.8598633,0.0600586,3.6503906,0.0600586,5.3701172
		c0.0395508,1.4003906,0.5795898,2.5600586,1.6201172,3.4799805c0.7197266,0.6806641,1.2993164,1.0302734,1.7397461,1.0498047
		C36.5795898,38.2988281,37.1992188,38.0083008,38,37.4082031c0.0390625,0,0.0600586-0.0195312,0.0600586-0.0595703
		c0.519043-0.2402344,0.7797852-0.7202148,0.7797852-1.4404297c-0.0405273-0.5595703-0.0600586-1.0996094-0.0600586-1.6196289
		c0-0.5195312,0-1.0400391,0-1.5600586v-6.8999023c0-0.6396484-0.2006836-1.159668-0.6000977-1.5600586
		c-0.5200195-0.5600586-1.0200195-1.1298828-1.5-1.7099609c-0.4799805-0.5795898-0.9599609-1.1494141-1.4399414-1.7099609
		c-0.2006836-0.199707-0.3701172-0.3901367-0.5097656-0.5703125C34.5893555,20.0986328,34.4194336,19.9091797,34.2197266,19.7084961
		z"/>
	<path d="M57.3203125,37.9482422c0.1591797-0.0390625,0.2895508-0.0795898,0.3896484-0.1196289
		c0.0996094-0.0395508,0.2104492-0.0600586,0.3300781-0.0600586c0.2402344,0,0.3994141,0.0805664,0.4799805,0.2397461
		c0.0395508,0.0805664,0.0200195,0.2607422-0.0600586,0.5400391c-0.0805664,0.1201172-0.1796875,0.2202148-0.2998047,0.300293
		c-1.4003906,1.2802734-2.8603516,2.5600586-4.3798828,3.8398438c-0.440918,0.3598633-0.8608398,0.4995117-1.2602539,0.4199219
		c-0.4003906-0.0795898-0.7001953-0.3994141-0.8999023-0.9599609c-0.2802734-0.6796875-0.4199219-1.4399414-0.4199219-2.2802734
		c-0.0805664-3.2397461-0.0805664-6.4799805,0-9.7197266c0-1.159668,0.0092773-2.3701172,0.0297852-3.6298828
		c0.0200195-1.2602539,0.0498047-2.4697266,0.090332-3.6303711c0-0.5595703-0.0209961-1.1098633-0.0600586-1.6499023
		c-0.0405273-0.5400391-0.0805664-1.0893555-0.1201172-1.6499023c-0.0805664-0.3994141-0.1601562-0.6796875-0.2397461-0.8398438
		c-0.2402344-0.6000977-0.640625-0.7998047-1.2001953-0.6000977c-0.0805664,0.0400391-0.1704102,0.0805664-0.2700195,0.1201172
		c-0.1000977,0.0400391-0.1904297,0.0600586-0.2700195,0.0600586c-0.0805664,0.0400391-0.1601562,0.0400391-0.2397461,0
		c-0.0810547-0.0395508-0.140625-0.0800781-0.1801758-0.1201172c-0.0795898-0.159668-0.0795898-0.3198242,0-0.4799805
		c0.0795898-0.1201172,0.1694336-0.2197266,0.2700195-0.300293c0.0991211-0.0795898,0.1894531-0.1591797,0.2700195-0.2397461
		c0.6796875-0.5595703,1.3291016-1.1098633,1.949707-1.6499023c0.6201172-0.5400391,1.2695312-1.0893555,1.9501953-1.6503906
		c0.0795898-0.0795898,0.1591797-0.1396484,0.2402344-0.1796875c0.7592773-0.6000977,1.3798828-0.7802734,1.8598633-0.5400391
		c0.4799805,0.2397461,0.859375,0.7001953,1.1401367,1.3798828c0.1591797,0.3598633,0.2490234,0.7407227,0.2695312,1.1401367
		c0.0200195,0.4003906,0.0698242,0.8007812,0.1503906,1.199707c0.0390625,0.1606445,0.0600586,0.3208008,0.0600586,0.4799805
		c0,0.1606445,0.0195312,0.3808594,0.0595703,0.6601562c0.199707-0.1201172,0.3696289-0.2294922,0.5102539-0.3300781
		c0.1396484-0.0991211,0.2895508-0.2099609,0.4501953-0.3300781c0.6391602-0.519043,1.269043-1.0795898,1.8896484-1.6796875
		c0.6196289-0.6000977,1.2695312-1.159668,1.9501953-1.6801758c0.6796875-0.5595703,1.2900391-0.8295898,1.8300781-0.8100586
		c0.5400391,0.0209961,1.1494141,0.3105469,1.8300781,0.8701172c0.4394531,0.3598633,0.8696289,0.8007812,1.2895508,1.3198242
		c0.4204102,0.5205078,0.8100586,1.0004883,1.1704102,1.4404297c0.199707,0.2802734,0.3393555,0.590332,0.4199219,0.9296875
		c0.0795898,0.340332,0.1396484,0.6704102,0.1796875,0.9902344c0.159668,2.3203125,0.2402344,4.7397461,0.2402344,7.2597656
		s-0.0405273,4.9604492-0.1201172,7.3203125c-0.0400391,0.6401367-0.0600586,1.2700195-0.0600586,1.8896484
		c0,0.6206055,0.0395508,1.2299805,0.1201172,1.8300781c0.0395508,0.5605469,0.1396484,0.8803711,0.2998047,0.9599609
		c0.159668,0.0805664,0.4799805,0.0805664,0.9604492,0c0.3193359-0.0795898,0.5395508-0.0600586,0.659668,0.0600586
		c0.159668,0.1601562,0.199707,0.2998047,0.1201172,0.4199219c-0.0805664,0.1201172-0.1801758,0.2202148-0.2998047,0.300293
		c-0.7607422,0.6401367-1.5107422,1.2802734-2.25,1.9199219c-0.7407227,0.6401367-1.5107422,1.2807617-2.3100586,1.9199219
		c-1.1206055,0.8398438-1.9799805,0.6196289-2.5800781-0.6601562c-0.2006836-0.519043-0.300293-1.0395508-0.300293-1.5600586
		c0-1.7592773,0.0097656-3.5400391,0.0302734-5.3398438c0.0195312-1.7998047,0.0297852-3.5791016,0.0297852-5.3398438
		c0-0.9599609-0.0205078-1.9697266-0.0600586-3.0302734c-0.0400391-1.059082-0.0400391-2.0698242,0-3.0297852
		C62.9995117,22.3886719,62.6796875,21.3583984,62,20.5786133c-0.6806641-0.7802734-1.5-1.4702148-2.4599609-2.0703125
		c-0.4799805-0.2792969-0.9804688-0.2192383-1.5,0.1801758c-0.8398438,0.5605469-1.2597656,1.3603516-1.2597656,2.3999023
		c0.0795898,2.3999023,0.109375,4.8701172,0.0898438,7.4101562c-0.0205078,2.5405273-0.0297852,5.0097656-0.0297852,7.409668
		c0,0.3208008,0.0297852,0.6601562,0.0898438,1.0200195C56.9902344,37.2885742,57.1196289,37.6289062,57.3203125,37.9482422z"/>
	<path d="M94.2524414,43.1083984c-0.831543-0.6796875-1.4350586-1.4399414-1.8100586-2.2797852
		c-0.3759766-0.840332-0.6040039-1.7402344-0.6826172-2.7001953c-0.0400391-0.5195312-0.0600586-1.0292969-0.0600586-1.5297852
		c0-0.5,0-0.9902344,0-1.4702148c0-2.4394531-0.0102539-4.9291992-0.0297852-7.4702148
		c-0.0205078-2.5395508-0.0302734-5.0097656-0.0302734-7.409668c0-1.5200195-0.0102539-3.0302734-0.0297852-4.5302734
		c-0.0205078-1.5-0.0297852-3.0092773-0.0297852-4.5297852c-0.0405273-0.4399414-0.0703125-0.8701172-0.090332-1.2900391
		c-0.0205078-0.4199219-0.0703125-0.8496094-0.1499023-1.2900391C91.2993164,8.4492188,91.2695312,8.2885742,91.25,8.128418
		c-0.0209961-0.1591797-0.0703125-0.3198242-0.1499023-0.4799805C90.8193359,6.9282227,90.3696289,6.4482422,89.75,6.2084961
		c-0.6206055-0.2402344-1.2705078-0.1396484-1.9501953,0.2998047c-0.1601562,0.0805664-0.2905273,0.1708984-0.3901367,0.2700195
		c-0.1000977,0.1005859-0.2304688,0.1904297-0.3896484,0.2700195c-0.0805664,0.0805664-0.1801758,0.1108398-0.300293,0.0898438
		c-0.1196289-0.0195312-0.2202148-0.0297852-0.2998047-0.0297852c0-0.1201172-0.0102539-0.2402344-0.0302734-0.3598633
		c-0.0205078-0.1201172,0.0097656-0.2197266,0.090332-0.300293c0.0390625-0.1196289,0.109375-0.2192383,0.2099609-0.2998047
		c0.0991211-0.0795898,0.1894531-0.1591797,0.2700195-0.2402344c0.7197266-0.5996094,1.4296875-1.199707,2.1298828-1.7998047
		C89.7890625,3.5083008,90.5,2.9291992,91.2197266,2.3681641c0.0395508-0.0795898,0.1396484-0.1591797,0.300293-0.2397461
		c0.6391602-0.4799805,1.2597656-0.7397461,1.8598633-0.7797852c0.6000977-0.0395508,1.1298828,0.050293,1.5898438,0.2695312
		c0.4594727,0.2207031,0.8496094,0.5610352,1.1699219,1.0200195c0.3198242,0.4604492,0.5400391,0.9707031,0.6601562,1.5302734
		c0.0795898,0.2006836,0.1293945,0.4199219,0.1499023,0.6601562c0.0200195,0.2397461,0.0693359,0.5200195,0.1503906,0.8398438
		c0.1591797-0.1201172,0.2998047-0.2192383,0.4199219-0.300293c0.1196289-0.0795898,0.2397461-0.1591797,0.3598633-0.2397461
		c0.4394531-0.3598633,0.8896484-0.7397461,1.3500977-1.1401367c0.4594727-0.3994141,0.9296875-0.7797852,1.409668-1.1396484
		c0.6796875-0.5195312,1.359375-0.9604492,2.0400391-1.3203125c0.9199219-0.3994141,1.7797852-0.4697266,2.5800781-0.2099609
		c0.7998047,0.2607422,1.4794922,0.7905273,2.0400391,1.5898438c0.199707,0.3208008,0.3496094,0.640625,0.4501953,0.9599609
		c0.0991211,0.3208008,0.2099609,0.640625,0.3300781,0.9604492c0.0390625,0.1196289,0.0693359,0.25,0.0898438,0.3896484
		c0.0195312,0.140625,0.0693359,0.3105469,0.1499023,0.5102539c0.2402344-0.199707,0.4501953-0.3696289,0.6298828-0.5102539
		c0.1801758-0.1396484,0.3696289-0.2895508,0.5703125-0.449707c0.5996094-0.4399414,1.1894531-0.8896484,1.7700195-1.3500977
		c0.5791016-0.4594727,1.1894531-0.909668,1.8295898-1.3500977c0.6796875-0.4394531,1.3701172-0.609375,2.0703125-0.5097656
		c0.6992188,0.1000977,1.3291016,0.4301758,1.8901367,0.9897461c0.4799805,0.4799805,0.8295898,1.0107422,1.0498047,1.5898438
		c0.2192383,0.5805664,0.3691406,1.2104492,0.4501953,1.8901367c0.0795898,0.440918,0.1396484,0.8701172,0.1796875,1.2900391
		c0.0395508,0.4199219,0.0600586,0.8505859,0.0600586,1.2900391c0.0395508,1.640625,0.0795898,3.2607422,0.1201172,4.8598633
		c0.0390625,1.6005859,0.0390625,3.2202148,0,4.8603516c-0.0805664,2.6005859-0.1601562,5.2602539-0.2402344,7.9799805
		c-0.0805664,2.7202148-0.1601562,5.3999023-0.2397461,8.0400391c-0.0405273,0.6801758-0.1708984,1.3300781-0.3901367,1.949707
		c-0.2202148,0.6206055-0.4902344,1.2299805-0.8100586,1.8300781c-0.1201172,0.2802734-0.340332,0.5400391-0.659668,0.7797852
		c-0.6806641,0.5610352-1.3408203,1.1206055-1.9804688,1.6801758c-0.6401367,0.5605469-1.300293,1.1201172-1.9799805,1.6801758
		c-0.1196289,0.1196289-0.2602539,0.2202148-0.4199219,0.2998047c-0.2802734,0.0805664-0.4404297,0.0805664-0.4799805,0
		c-0.0805664-0.0395508-0.1303711-0.0991211-0.1499023-0.1801758c-0.0205078-0.0795898-0.0297852-0.1591797-0.0297852-0.2397461
		c0.0390625-0.1201172,0.0898438-0.2402344,0.1499023-0.3598633c0.0600586-0.1201172,0.1293945-0.2402344,0.2099609-0.3603516
		c0.3198242-0.6391602,0.5595703-1.2900391,0.7197266-1.949707c0.159668-0.6601562,0.2597656-1.3500977,0.300293-2.0703125
		c0.0795898-2.2392578,0.1591797-4.5195312,0.2397461-6.8398438c0.0800781-2.3193359,0.1201172-4.5991211,0.1201172-6.8398438
		c0.0395508-2.1601562,0.0395508-4.3295898,0-6.5102539c-0.0400391-2.1796875-0.1000977-4.3500977-0.1801758-6.5097656
		c-0.0400391-0.4399414-0.1103516-0.8793945-0.2099609-1.3203125c-0.1000977-0.4394531-0.2304688-0.8793945-0.3896484-1.3198242
		C112.3193359,7.4682617,111.9799805,7.0185547,111.5,6.7182617c-0.4799805-0.2998047-1.0004883-0.409668-1.5600586-0.3300781
		c-1.0800781,0.0810547-1.5805664,0.640625-1.5,1.6801758c0.0390625,2.6005859,0.0795898,5.1806641,0.1201172,7.7402344
		c0.0390625,2.5600586,0.0795898,5.159668,0.1196289,7.7998047c0,1.2001953,0,2.4804688,0,3.8398438
		c0,1.3603516-0.0205078,2.6606445-0.0600586,3.9003906c0,0.7197266-0.0205078,1.4399414-0.0595703,2.159668
		c-0.0405273,0.7202148-0.1005859,1.4399414-0.1801758,2.1601562c-0.0805664,0.5200195-0.2006836,1.0302734-0.3598633,1.5297852
		c-0.1606445,0.5009766-0.3208008,1.0107422-0.4799805,1.5302734c-0.0805664,0.1201172-0.1708984,0.2397461-0.2700195,0.3598633
		c-0.1005859,0.1201172-0.1904297,0.2202148-0.2700195,0.2998047c-1.2807617,1.0800781-2.6206055,2.1806641-4.0200195,3.300293
		c-0.1606445,0.1601562-0.300293,0.2607422-0.4199219,0.2998047c-0.3208008,0.159668-0.5205078,0.0405273-0.6000977-0.3598633
		c0-0.1201172,0.0195312-0.2294922,0.0600586-0.3300781c0.0390625-0.0991211,0.0795898-0.1894531,0.1196289-0.2700195
		c0.3603516-0.7592773,0.5898438-1.5297852,0.6904297-2.3100586c0.0991211-0.7797852,0.1499023-1.5693359,0.1499023-2.3696289
		V13.5283203c-0.0415039-0.7592773-0.1015625-1.5195312-0.1821289-2.2797852
		c-0.0805664-0.7592773-0.1816406-1.5395508-0.3027344-2.340332c-0.081543-0.5996094-0.3242188-1.2197266-0.7275391-1.8598633
		c-0.5258789-0.6796875-1.2338867-1.0498047-2.1225586-1.1098633s-1.6162109,0.2304688-2.1816406,0.8701172
		C97.3012695,6.96875,97.2001953,7.1591797,97.159668,7.378418c-0.0400391,0.2202148-0.0595703,0.4301758-0.0595703,0.6298828
		c0,1.2001953,0.0092773,2.3999023,0.0297852,3.6000977c0.0195312,1.2001953,0.0297852,2.3999023,0.0297852,3.6000977
		c0.0395508,2.840332,0.0600586,5.7207031,0.0600586,8.6401367c0,2.9199219,0,5.800293,0,8.6396484
		c0,0.8803711,0.0600586,1.7402344,0.1801758,2.5800781c0.0795898,0.5605469,0.2294922,1.1005859,0.4501953,1.6201172
		c0.2192383,0.5200195,0.5493164,1,0.9897461,1.4399414c0.0795898,0.0805664,0.1591797,0.1704102,0.2402344,0.2700195
		c0.0795898,0.1000977,0.1796875,0.2304688,0.2998047,0.3901367c-0.8803711,0.7197266-1.7373047,1.4306641-2.5717773,2.1298828
		C95.9741211,41.6186523,95.1225586,42.3491211,94.2524414,43.1083984z"/>
	<path d="M129.4404297,18.9282227c-0.6806641-0.5595703-1.2207031-0.8491211-1.6201172-0.8696289
		c-0.4003906-0.0200195-0.8994141,0.1899414-1.5,0.6298828C126,18.9282227,125.7001953,19.168457,125.4208984,19.4082031
		c-0.28125,0.2402344-0.5810547,0.5009766-0.9003906,0.7802734c-0.0810547,0.0805664-0.1708984,0.1601562-0.2705078,0.2397461
		c-0.0996094,0.0805664-0.2099609,0.140625-0.3295898,0.1801758c-0.2402344,0.0805664-0.4604492,0.0600586-0.6601562-0.0600586
		c-0.0405273-0.0395508-0.0600586-0.1201172-0.0600586-0.2397461c0-0.1201172,0.0395508-0.2197266,0.1201172-0.300293
		c0.0390625-0.1591797,0.1787109-0.3198242,0.4179688-0.4799805c1.15625-0.9194336,2.2919922-1.8598633,3.4091797-2.8198242
		c1.1152344-0.9599609,2.2519531-1.8994141,3.4072266-2.8203125c0.6787109-0.5595703,1.2568359-0.8193359,1.734375-0.7797852
		c0.4785156,0.0405273,1.0966797,0.2998047,1.8535156,0.7797852c0.9169922,0.640625,1.7333984,1.390625,2.4521484,2.25
		c0.7167969,0.8608398,1.4550781,1.6904297,2.2119141,2.4902344c0.1201172,0.1601562,0.2392578,0.3208008,0.359375,0.4799805
		c0.1191406,0.1601562,0.2587891,0.2998047,0.4179688,0.4199219c0.796875,0.7602539,1.1962891,1.7202148,1.1962891,2.8798828
		v10.5600586c0,0.5605469,0.0302734,1.1206055,0.0898438,1.6801758c0.0605469,0.5605469,0.109375,1.1201172,0.1503906,1.6801758
		c0.0390625,0.1196289,0.0693359,0.25,0.0898438,0.3896484c0.0195312,0.140625,0.0693359,0.2905273,0.1494141,0.4501953
		c0.1601562,0.4404297,0.3398438,0.7104492,0.5400391,0.8100586c0.2001953,0.1000977,0.5195312,0.050293,0.9599609-0.1499023
		c0.1601562-0.0800781,0.3095703-0.1401367,0.4501953-0.1801758c0.1396484-0.0395508,0.2705078,0.0400391,0.390625,0.2397461
		c0.1191406,0.2006836,0.1191406,0.3603516,0,0.4799805c-0.1201172,0.1201172-0.2402344,0.2402344-0.3603516,0.3603516
		c-0.2001953,0.2006836-0.4111328,0.3803711-0.6298828,0.5400391c-0.2207031,0.1601562-0.4501953,0.340332-0.6904297,0.5400391
		c-0.5205078,0.4404297-1.0175781,0.8696289-1.4931641,1.2900391c-0.4755859,0.4199219-0.9902344,0.8500977-1.5429688,1.2895508
		c-1.2275391,0.9995117-2.2158203,0.7802734-2.9677734-0.659668c-0.1191406-0.2792969-0.2080078-0.5595703-0.2675781-0.840332
		c-0.0595703-0.2792969-0.1289062-0.5791016-0.2080078-0.8999023c-0.0810547-0.2792969-0.1298828-0.5595703-0.1503906-0.8398438
		c-0.0205078-0.2792969-0.0498047-0.5795898-0.0898438-0.8999023c-0.359375,0.2397461-0.6201172,0.4199219-0.7792969,0.5400391
		c-0.6806641,0.5605469-1.3710938,1.1098633-2.0703125,1.6499023c-0.7001953,0.5400391-1.390625,1.090332-2.0703125,1.6499023
		c-0.4794922,0.3208008-0.9404297,0.6000977-1.3798828,0.8398438c-0.9208984,0.4399414-1.7607422,0.3198242-2.5195312-0.3598633
		c-0.2011719-0.1591797-0.3808594-0.3198242-0.5400391-0.4799805c-0.1611328-0.1591797-0.3408203-0.3198242-0.5400391-0.4799805
		C124.1005859,40.5283203,123.5,39.1884766,123.5,37.5883789c0-1.5600586-0.0205078-3.1894531-0.0595703-4.8901367
		c-0.0405273-1.699707-0.1005859-3.3300781-0.1801758-4.8896484c-0.1201172-2.0795898,0.6196289-3.8193359,2.2202148-5.2202148
		c0.4794922-0.4394531,0.9492188-0.8491211,1.4101562-1.2299805c0.4589844-0.3798828,0.9091797-0.7895508,1.3496094-1.2299805
		c0.2001953-0.199707,0.390625-0.3994141,0.5703125-0.6000977
		C128.9902344,19.3286133,129.2001953,19.1289062,129.4404297,18.9282227z M130.5800781,19.7084961
		c-1.0800781,0.9204102-1.6201172,2.0200195-1.6201172,3.2998047c0.0400391,1.7202148,0.0800781,3.5102539,0.1201172,5.3701172
		s0.0605469,3.6503906,0.0605469,5.3701172c0.0390625,1.4003906,0.5791016,2.5600586,1.6201172,3.4799805
		c0.7197266,0.6806641,1.2988281,1.0302734,1.7392578,1.0498047c0.4404297,0.0205078,1.0595703-0.2700195,1.8603516-0.8701172
		c0.0390625,0,0.0605469-0.0195312,0.0605469-0.0595703c0.5185547-0.2402344,0.7792969-0.7202148,0.7792969-1.4404297
		c-0.0400391-0.5595703-0.0595703-1.0996094-0.0595703-1.6196289c0-0.5195312,0-1.0400391,0-1.5600586v-6.8999023
		c0-0.6396484-0.2011719-1.159668-0.6005859-1.5600586c-0.5195312-0.5600586-1.0195312-1.1298828-1.5-1.7099609
		c-0.4794922-0.5795898-0.9599609-1.1494141-1.4394531-1.7099609c-0.2011719-0.199707-0.3701172-0.3901367-0.5097656-0.5703125
		C130.9501953,20.0986328,130.7802734,19.9091797,130.5800781,19.7084961z"/>
	<path d="M153.6796875,37.9482422c0.1601562-0.0390625,0.2900391-0.0795898,0.390625-0.1196289
		c0.0986328-0.0395508,0.2099609-0.0600586,0.3300781-0.0600586c0.2392578,0,0.3994141,0.0805664,0.4794922,0.2397461
		c0.0390625,0.0805664,0.0195312,0.2607422-0.0595703,0.5400391c-0.0810547,0.1201172-0.1806641,0.2202148-0.2998047,0.300293
		c-1.4013672,1.2802734-2.8603516,2.5600586-4.3808594,3.8398438c-0.4404297,0.3598633-0.8603516,0.4995117-1.2597656,0.4199219
		c-0.4003906-0.0795898-0.7001953-0.3994141-0.8994141-0.9599609c-0.2802734-0.6796875-0.4208984-1.4399414-0.4208984-2.2802734
		c-0.0800781-3.2397461-0.0800781-6.4799805,0-9.7197266c0-1.159668,0.0097656-2.3701172,0.0302734-3.6298828
		c0.0195312-1.2602539,0.0498047-2.4697266,0.0898438-3.6303711c0-0.5595703-0.0205078-1.1098633-0.0595703-1.6499023
		c-0.0400391-0.5400391-0.0810547-1.0893555-0.1201172-1.6499023c-0.0810547-0.3994141-0.1601562-0.6796875-0.2402344-0.8398438
		c-0.2392578-0.6000977-0.6396484-0.7998047-1.2001953-0.6000977c-0.0800781,0.0400391-0.1699219,0.0805664-0.2695312,0.1201172
		c-0.1005859,0.0400391-0.1904297,0.0600586-0.2695312,0.0600586c-0.0810547,0.0400391-0.1611328,0.0400391-0.2402344,0
		c-0.0810547-0.0395508-0.140625-0.0800781-0.1806641-0.1201172c-0.0791016-0.159668-0.0791016-0.3198242,0-0.4799805
		c0.0800781-0.1201172,0.1699219-0.2197266,0.2705078-0.300293c0.0996094-0.0795898,0.1894531-0.1591797,0.2695312-0.2397461
		c0.6796875-0.5595703,1.3300781-1.1098633,1.9501953-1.6499023s1.2695312-1.0893555,1.9501953-1.6503906
		c0.0800781-0.0795898,0.1591797-0.1396484,0.2402344-0.1796875c0.7587891-0.6000977,1.3798828-0.7802734,1.859375-0.5400391
		c0.4804688,0.2397461,0.8603516,0.7001953,1.140625,1.3798828c0.1591797,0.3598633,0.2490234,0.7407227,0.2695312,1.1401367
		c0.0195312,0.4003906,0.0693359,0.8007812,0.1503906,1.199707c0.0390625,0.1606445,0.0595703,0.3208008,0.0595703,0.4799805
		c0,0.1606445,0.0195312,0.3808594,0.0605469,0.6601562c0.1992188-0.1201172,0.3691406-0.2294922,0.5097656-0.3300781
		c0.1396484-0.0991211,0.2900391-0.2099609,0.4501953-0.3300781c0.6386719-0.519043,1.2695312-1.0795898,1.8896484-1.6796875
		s1.2695312-1.159668,1.9501953-1.6801758c0.6796875-0.5595703,1.2900391-0.8295898,1.8300781-0.8100586
		c0.5400391,0.0209961,1.1494141,0.3105469,1.8300781,0.8701172c0.4394531,0.3598633,0.8701172,0.8007812,1.2900391,1.3198242
		c0.4199219,0.5205078,0.8095703,1.0004883,1.1699219,1.4404297c0.1992188,0.2802734,0.3388672,0.590332,0.4199219,0.9296875
		c0.0791016,0.340332,0.1396484,0.6704102,0.1796875,0.9902344c0.1591797,2.3203125,0.2402344,4.7397461,0.2402344,7.2597656
		s-0.0400391,4.9604492-0.1201172,7.3203125c-0.0400391,0.6401367-0.0595703,1.2700195-0.0595703,1.8896484
		c0,0.6206055,0.0390625,1.2299805,0.1201172,1.8300781c0.0390625,0.5605469,0.1396484,0.8803711,0.2998047,0.9599609
		c0.1591797,0.0805664,0.4794922,0.0805664,0.9599609,0c0.3193359-0.0795898,0.5400391-0.0600586,0.6601562,0.0600586
		c0.1591797,0.1601562,0.1992188,0.2998047,0.1191406,0.4199219s-0.1796875,0.2202148-0.2998047,0.300293
		c-0.7597656,0.6401367-1.5097656,1.2802734-2.25,1.9199219C163.7695312,41.3486328,163,41.9892578,162.2001953,42.628418
		c-1.1201172,0.8398438-1.9804688,0.6196289-2.5800781-0.6601562c-0.2011719-0.519043-0.2998047-1.0395508-0.2998047-1.5600586
		c0-1.7592773,0.0087891-3.5400391,0.0292969-5.3398438s0.0302734-3.5791016,0.0302734-5.3398438
		c0-0.9599609-0.0205078-1.9697266-0.0595703-3.0302734c-0.0410156-1.059082-0.0410156-2.0698242,0-3.0297852
		c0.0390625-1.2797852-0.2802734-2.3100586-0.9599609-3.0898438c-0.6806641-0.7802734-1.5-1.4702148-2.4599609-2.0703125
		c-0.4804688-0.2792969-0.9814453-0.2192383-1.5,0.1801758c-0.8408203,0.5605469-1.2607422,1.3603516-1.2607422,2.3999023
		c0.0800781,2.3999023,0.1103516,4.8701172,0.0908203,7.4101562c-0.0214844,2.5405273-0.0302734,5.0097656-0.0302734,7.409668
		c0,0.3208008,0.0302734,0.6601562,0.0898438,1.0200195C153.3496094,37.2885742,153.4794922,37.6289062,153.6796875,37.9482422z"/>
	<path d="M182.5996094,15.3881836c-0.0400391-0.3989258-0.0595703-0.7695312-0.0595703-1.1098633
		c0-0.3393555-0.0205078-0.6899414-0.0605469-1.0498047l-0.1796875-4.5
		c-0.0800781-0.5595703-0.2695312-1.0292969-0.5703125-1.4101562c-0.2998047-0.3798828-0.6103516-0.75-0.9296875-1.1098633
		c-0.0800781-0.0795898-0.1904297-0.1201172-0.3300781-0.1201172c-0.140625,0-0.2695312,0-0.3896484,0
		c-0.1201172,0.0405273-0.2402344,0.0898438-0.3603516,0.1499023s-0.2607422,0.1108398-0.4199219,0.1499023
		c-0.2402344,0-0.4199219-0.0595703-0.5400391-0.1796875c-0.0400391-0.0395508-0.0400391-0.1201172,0-0.2402344
		c0.0390625-0.1196289,0.0996094-0.199707,0.1796875-0.2397461l4.6806641-3.9599609
		c0.1992188-0.159668,0.4287109-0.2792969,0.6894531-0.3603516c0.2597656-0.0795898,0.5107422-0.1591797,0.75-0.2397461
		c0.2792969-0.0795898,0.5107422-0.0395508,0.6904297,0.1201172c0.1796875,0.1601562,0.3691406,0.340332,0.5703125,0.5400391
		c1.1591797,1.2402344,1.7392578,2.6801758,1.7392578,4.3198242c0,0.4799805,0,1.5297852,0,3.1499023s0,3.5205078,0,5.7001953
		c0,2.1806641,0.0097656,4.5,0.0302734,6.9599609c0.0195312,2.4599609,0.0302734,4.7700195,0.0302734,6.9296875
		c0,2.1601562,0.0087891,4.0107422,0.0292969,5.550293c0.0205078,1.5400391,0.0302734,2.4897461,0.0302734,2.8500977
		c0.0400391,0.2006836,0.0996094,0.3999023,0.1806641,0.5996094c0.0791016,0.2006836,0.1591797,0.4003906,0.2392578,0.6000977
		c0.2001953,0.4799805,0.5400391,0.5805664,1.0205078,0.300293c0.3193359-0.2402344,0.5791016-0.3994141,0.7792969-0.4799805
		c0.0800781-0.0395508,0.1601562-0.0395508,0.2402344,0c0.0800781,0.0400391,0.1591797,0.1000977,0.2402344,0.1796875
		c0.0800781,0.0805664,0.0595703,0.2202148-0.0595703,0.4199219c-0.9208984,0.7607422-1.8603516,1.4506836-2.8203125,2.0703125
		c-0.9599609,0.6206055-1.9003906,1.2299805-2.8203125,1.8300781c-0.7597656,0.4799805-1.4003906,0.3598633-1.9199219-0.3603516
		c-0.3203125-0.4394531-0.5205078-0.8999023-0.5996094-1.3798828c-0.0810547-0.4799805-0.140625-0.9794922-0.1806641-1.5v-1.3798828
		c0-0.0795898-0.0097656-0.159668-0.0292969-0.2402344c-0.0205078-0.0795898-0.0302734-0.1796875-0.0302734-0.2998047
		c-0.3603516,0.3208008-0.7109375,0.6206055-1.0498047,0.8999023c-0.3408203,0.2802734-0.6904297,0.5605469-1.0498047,0.8398438
		c-0.8007812,0.5610352-1.5908203,1.1206055-2.3701172,1.6801758c-0.7802734,0.5605469-1.5703125,1.1201172-2.3701172,1.6801758
		c-0.4003906,0.2802734-0.8007812,0.4394531-1.2001953,0.4799805c-0.1601562,0.0390625-0.3398438,0.0498047-0.5400391,0.0297852
		c-0.2001953-0.0205078-0.3603516-0.0898438-0.4794922-0.2099609c-0.5615234-0.6000977-1.1103516-1.199707-1.6503906-1.7998047
		s-1.0703125-1.2397461-1.5898438-1.9199219c-0.1201172-0.159668-0.1904297-0.3603516-0.2099609-0.6000977
		c-0.0205078-0.2402344-0.0302734-0.4594727-0.0302734-0.6601562v-9.1201172
		c0.0390625-0.6796875,0.0693359-1.3696289,0.0898438-2.0698242c0.0195312-0.6992188,0.0693359-1.3891602,0.1503906-2.0698242
		c0.0390625-0.3603516,0.1494141-0.6796875,0.3300781-0.9599609c0.1796875-0.2797852,0.3896484-0.5400391,0.6298828-0.7802734
		c1.359375-1.3994141,2.7392578-2.7695312,4.1396484-4.1098633c1.3994141-1.3398438,2.859375-2.6098633,4.3798828-3.8100586
		c0.3603516-0.2792969,0.6503906-0.4892578,0.8701172-0.6298828c0.2197266-0.1396484,0.4199219-0.199707,0.6005859-0.1801758
		c0.1796875,0.0205078,0.3496094,0.1108398,0.5097656,0.2700195c0.1591797,0.1601562,0.3994141,0.3808594,0.7197266,0.6601562
		C182.2597656,15.2685547,182.3603516,15.3085938,182.5996094,15.3881836z M176.5996094,19.4682617
		c-0.5605469,0.4799805-0.8398438,1.0800781-0.8398438,1.800293c-0.0800781,2.159668-0.1298828,4.3300781-0.1494141,6.5097656
		c-0.0214844,2.1806641-0.0507812,4.3500977-0.0908203,6.5102539c0,0.5200195,0.1201172,0.9204102,0.3603516,1.199707
		c0.3603516,0.440918,0.7294922,0.8701172,1.1103516,1.2900391c0.3789062,0.4199219,0.75,0.8505859,1.109375,1.2900391
		c0.3603516,0.4404297,0.7802734,0.5205078,1.2607422,0.2402344c0.4394531-0.2797852,0.8789062-0.5498047,1.3193359-0.8100586
		c0.4394531-0.2597656,0.8798828-0.5102539,1.3203125-0.75c0.3193359-0.159668,0.4794922-0.4594727,0.4794922-0.8999023
		c0-1.6401367,0.0097656-3.2597656,0.0302734-4.8603516c0.0195312-1.5991211,0.0498047-3.199707,0.0898438-4.7998047
		c0-0.2792969-0.0800781-0.5400391-0.2392578-0.7802734c-0.7207031-0.7993164-1.4511719-1.5898438-2.1904297-2.3696289
		c-0.7402344-0.7802734-1.4697266-1.5693359-2.1904297-2.3701172c-0.2001953-0.199707-0.4199219-0.3994141-0.6591797-0.6000977
		C177.0800781,19.8686523,176.8398438,19.6689453,176.5996094,19.4682617z"/>
	<path d="M204.8798828,38.128418c0.1201172-0.3198242,0.1894531-0.9091797,0.2099609-1.7700195
		c0.0195312-0.8598633,0.0195312-1.7792969,0-2.7597656c-0.0205078-0.9799805-0.0605469-1.8901367-0.1201172-2.7304688
		c-0.0595703-0.8398438-0.1298828-1.4189453-0.2099609-1.7397461c-0.0810547-0.0795898-0.1904297-0.1098633-0.3300781-0.0898438
		c-0.140625,0.0205078-0.2802734,0.0297852-0.4199219,0.0297852c-0.140625,0-0.2705078-0.0195312-0.3896484-0.0600586
		c-0.1201172-0.0390625-0.2011719-0.1796875-0.2402344-0.4199219c0.0791016-0.0795898,0.1699219-0.1801758,0.2695312-0.2998047
		c0.0996094-0.1201172,0.1894531-0.2197266,0.2705078-0.300293c0.6396484-0.5595703,1.2695312-1.0893555,1.8896484-1.5898438
		c0.6201172-0.4995117,1.25-1.0292969,1.890625-1.5898438c0.1191406-0.0800781,0.2587891-0.199707,0.4199219-0.3603516
		c0.5996094-0.3994141,1.1396484-0.4892578,1.6191406-0.2700195c0.4804688,0.2207031,0.7597656,0.6899414,0.8408203,1.4101562
		c0.0791016,0.3598633,0.1201172,0.7304688,0.1201172,1.1098633c0,0.3808594,0.0195312,0.75,0.0595703,1.1103516
		c0,1.1606445,0,2.3500977,0,3.5698242c0,1.2207031,0.0195312,2.390625,0.0595703,3.5097656
		c0,0.7202148-0.2197266,1.300293-0.6591797,1.7402344c-1.0800781,1.0004883-2.1806641,1.9604492-3.3007812,2.8798828
		c-1.1201172,0.9208984-2.2998047,1.7802734-3.5400391,2.5800781c-0.5605469,0.3598633-1.0195312,0.6206055-1.3798828,0.7797852
		c-0.359375,0.1606445-0.7099609,0.2402344-1.0498047,0.2402344s-0.7001953-0.0795898-1.0800781-0.2402344
		c-0.3808594-0.1591797-0.8505859-0.4199219-1.4101562-0.7797852c-0.5195312-0.3198242-1.0195312-0.6694336-1.5-1.0498047
		c-0.4794922-0.3798828-0.9599609-0.7700195-1.4394531-1.1704102c-0.6806641-0.5595703-1.140625-1.2089844-1.3798828-1.949707
		c-0.2402344-0.7397461-0.3603516-1.5302734-0.3603516-2.3701172c0-1.8793945,0.0195312-3.7895508,0.0595703-5.7299805
		c0.0400391-1.9394531,0.0800781-3.8701172,0.1201172-5.7900391c0-1.5991211,0.5800781-2.8994141,1.7402344-3.8999023
		c1.3203125-1.1196289,2.6494141-2.2592773,3.9902344-3.4199219c1.3398438-1.159668,2.75-2.199707,4.2294922-3.1201172
		c0.6396484-0.4394531,1.2197266-0.3994141,1.7402344,0.1201172c0.3603516,0.3203125,0.7099609,0.6503906,1.0498047,0.9897461
		c0.3398438,0.340332,0.6699219,0.7109375,0.9902344,1.1103516c0.8398438,1.1201172,0.8398438,2.2797852,0,3.4799805
		c-0.3603516,0.5200195-0.7597656,1.0405273-1.2001953,1.5600586c-0.4794922,0.5605469-1.1201172,1.2099609-1.9199219,1.949707
		c-0.8007812,0.7407227-1.5800781,1.5205078-2.3398438,2.3398438c-0.7607422,0.8203125-1.4199219,1.6503906-1.9794922,2.4902344
		c-0.5615234,0.8398438-0.8408203,1.640625-0.8408203,2.3999023c0,0.5205078,0.0097656,1.0708008,0.0302734,1.6499023
		c0.0195312,0.5805664,0.0693359,1.1103516,0.1503906,1.590332c0.0791016,0.5605469,0.2597656,1.0200195,0.5400391,1.3798828
		c0.6796875,0.7602539,1.4189453,1.4101562,2.2197266,1.9501953
		C203.0996094,37.1381836,203.9589844,37.6484375,204.8798828,38.128418z M199.359375,25.5883789
		c0.0800781,0,0.1601562,0.0405273,0.2402344,0.1201172c0.4394531-0.4799805,0.8701172-0.949707,1.2900391-1.4101562
		c0.4199219-0.4594727,0.8105469-0.9301758,1.1699219-1.4101562c0.3994141-0.519043,0.5791016-1.0498047,0.5400391-1.5898438
		c-0.0400391-0.5400391-0.2607422-1.0698242-0.6601562-1.5898438c-0.4003906-0.4399414-0.7792969-0.7998047-1.1396484-1.0800781
		c-0.5605469-0.4399414-0.9208984-0.3393555-1.0800781,0.2998047c-0.0810547,0.1606445-0.1201172,0.300293-0.1201172,0.4204102
		c-0.0400391,1.0405273-0.0800781,2.0800781-0.1201172,3.1196289
		C199.4394531,23.5087891,199.3994141,24.5488281,199.359375,25.5883789z"/>
	<path d="M215,17.9082031c-0.2011719,0.0810547-0.3505859,0.1606445-0.4501953,0.2402344
		c-0.1005859,0.0805664-0.2304688,0.140625-0.390625,0.1801758c-0.2001953,0.0805664-0.3798828,0.0400391-0.5400391-0.1201172
		c-0.0791016-0.159668-0.0595703-0.3393555,0.0605469-0.5400391c0.0390625-0.0795898,0.0996094-0.159668,0.1796875-0.2402344
		c0.0800781-0.0795898,0.1591797-0.1591797,0.2402344-0.2397461c0.7197266-0.5595703,1.4257812-1.1401367,2.1201172-1.7402344
		c0.6923828-0.5996094,1.3955078-1.1791992,2.1083984-1.7397461c0.6728516-0.5595703,1.2265625-0.75,1.6621094-0.5703125
		c0.4345703,0.1801758,0.7119141,0.7109375,0.8310547,1.590332c0.0390625,0.2802734,0.0683594,0.6503906,0.0888672,1.1098633
		c0.0205078,0.4604492,0.0498047,0.8701172,0.0898438,1.2299805c0.4394531-0.3598633,0.8691406-0.6992188,1.2900391-1.0200195
		c0.4199219-0.3198242,0.8291016-0.6391602,1.2294922-0.9599609c0.3193359-0.2397461,0.6494141-0.4892578,0.9902344-0.75
		c0.3388672-0.2597656,0.6689453-0.5297852,0.9902344-0.8100586c0.9599609-0.7197266,1.9589844-0.7797852,3-0.1796875
		c0.5185547,0.3203125,0.9892578,0.6699219,1.4091797,1.0498047c0.4199219,0.3803711,0.7705078,0.8305664,1.0507812,1.3500977
		c0.1992188,0.3598633,0.3193359,0.75,0.359375,1.1699219s0.0800781,0.8500977,0.1201172,1.2900391
		c0.0800781,0.4404297,0.109375,0.8701172,0.0898438,1.2900391C231.5087891,19.918457,231.5,20.3486328,231.5,20.7885742
		c0.0390625,0.2006836,0.0595703,0.3701172,0.0595703,0.5097656c0,0.140625,0.0390625,0.2905273,0.1201172,0.4501953
		c0.0791016,0.3598633,0.1894531,0.5800781,0.3300781,0.659668c0.1396484,0.0810547,0.3691406,0.0405273,0.6894531-0.1196289
		L233,22.168457c0.0791016,0,0.1796875,0,0.2998047,0s0.1992188,0.0400391,0.2402344,0.1201172
		c0.0791016,0.1601562,0.0595703,0.340332-0.0605469,0.5400391C233.359375,23.0288086,233.1992188,23.1884766,233,23.3085938
		c-1.3603516,1.199707-2.7207031,2.3203125-4.0800781,3.3598633c-0.0810547,0.1201172-0.2402344,0.2607422-0.4804688,0.4199219
		c-0.4003906,0.2006836-0.7802734,0.2802734-1.1396484,0.2402344c-0.3603516-0.0395508-0.640625-0.2597656-0.8398438-0.6601562
		c-0.1611328-0.3198242-0.2802734-0.6694336-0.3603516-1.050293c-0.0810547-0.3793945-0.1601562-0.75-0.2402344-1.1098633
		c-0.0800781-0.4394531-0.1103516-0.8999023-0.0898438-1.3798828c0.0195312-0.4799805,0.0302734-0.9394531,0.0302734-1.3798828
		c-0.0810547-1.8798828-0.9804688-3.1396484-2.7001953-3.7802734c-0.5605469-0.199707-1.0605469-0.1591797-1.5,0.1201172
		c-0.4404297,0.2802734-0.6601562,0.7407227-0.6601562,1.3798828c-0.0400391,2.7602539-0.1005859,5.5605469-0.1796875,8.3999023
		c-0.0810547,2.8408203-0.0205078,5.6401367,0.1796875,8.4003906c0,0.2006836,0,0.3803711,0,0.5400391
		c0,0.1601562,0.0390625,0.340332,0.1201172,0.5400391c0.0800781,0.3999023,0.1992188,0.6401367,0.3603516,0.7197266
		c0.1591797,0.0805664,0.4394531,0.0600586,0.8398438-0.0600586c0.0791016-0.0390625,0.1591797-0.0898438,0.2402344-0.1499023
		c0.0791016-0.0600586,0.1591797-0.0898438,0.2392578-0.0898438c0.1601562,0,0.3203125,0.0805664,0.4804688,0.2397461
		c0.0390625,0.1201172,0.0195312,0.2802734-0.0605469,0.4799805c-0.0800781,0.1201172-0.2392578,0.2607422-0.4794922,0.4199219
		c-0.6806641,0.5610352-1.3486328,1.1308594-2.0039062,1.7099609c-0.65625,0.5805664-1.3193359,1.1503906-1.9921875,1.7104492
		l-0.5341797,0.3598633c-0.5546875,0.3203125-1.0693359,0.4106445-1.5439453,0.2700195
		c-0.4755859-0.1396484-0.8115234-0.5297852-1.0087891-1.1699219c-0.1982422-0.7998047-0.296875-1.5395508-0.296875-2.2202148
		V20.1884766c0-0.2792969,0-0.5493164,0-0.8100586c0-0.2597656-0.0205078-0.5297852-0.0605469-0.8100586
		c0-0.0795898-0.0292969-0.1694336-0.0898438-0.2700195C215.0898438,18.1992188,215.0390625,18.0688477,215,17.9082031z"/>
	<path d="M246.7207031,38.0083008c0.3994141-1.159668,0.4794922-2.2094727,0.2392578-3.1499023
		c-0.2392578-0.9394531-0.7597656-1.8300781-1.5595703-2.6699219c-0.6806641-0.7592773-1.4404297-1.4794922-2.2802734-2.1601562
		c-0.8398438-0.6796875-1.6796875-1.2993164-2.5195312-1.8598633c-0.4404297-0.3198242-0.8808594-0.6396484-1.3203125-0.9599609
		c-0.4404297-0.3198242-0.8603516-0.6601562-1.2597656-1.0200195c-0.8808594-0.7998047-1.3798828-1.5996094-1.5-2.3999023
		c-0.1201172-0.7998047,0.0390625-1.7597656,0.4794922-2.8803711c0.2402344-0.5595703,0.5302734-1.0795898,0.8701172-1.5595703
		c0.3398438-0.4804688,0.75-0.9199219,1.2304688-1.3203125c0.7197266-0.6000977,1.4296875-1.2495117,2.1298828-1.949707
		c0.6992188-0.699707,1.4101562-1.3500977,2.1298828-1.9501953c0.5996094-0.4799805,1.2089844-0.7895508,1.8300781-0.9301758
		c0.6201172-0.1396484,1.3095703-0.0297852,2.0703125,0.3300781c0.3193359,0.1601562,0.6386719,0.3105469,0.9599609,0.4501953
		c0.3193359,0.140625,0.6601562,0.25,1.0195312,0.3300781c0.3994141,0.0805664,0.7802734,0.050293,1.140625-0.090332
		c0.359375-0.1396484,0.6992188-0.3300781,1.0195312-0.5698242c0.1201172-0.0795898,0.2294922-0.1591797,0.3300781-0.2402344
		c0.0996094-0.0795898,0.2099609-0.1396484,0.3300781-0.1796875c0.0791016-0.0395508,0.1699219-0.0600586,0.2695312-0.0600586
		s0.1503906,0.0400391,0.1503906,0.1201172c0.0800781,0.0805664,0.1289062,0.1704102,0.1503906,0.2700195
		c0.0195312,0.1000977-0.0107422,0.1899414-0.0908203,0.2700195c-0.0800781,0.1196289-0.1699219,0.2304688-0.2695312,0.3295898
		c-0.1005859,0.1005859-0.1904297,0.1904297-0.2705078,0.2700195c-0.6806641,0.5610352-1.3603516,1.1308594-2.0400391,1.7099609
		c-0.6806641,0.5805664-1.3603516,1.1503906-2.0400391,1.7104492c-0.7998047,0.6801758-1.6191406,1.1201172-2.4599609,1.3198242
		c-0.8398438,0.2006836-1.7392578,0.0805664-2.6992188-0.3598633c-0.0810547-0.0395508-0.2207031-0.0600586-0.4199219-0.0600586
		c-0.2011719,0.4799805-0.2402344,0.9204102-0.1201172,1.3198242c0.1201172,0.4003906,0.3388672,0.7602539,0.6601562,1.0800781
		c0.3984375,0.4404297,0.8095703,0.8305664,1.2294922,1.1699219c0.4199219,0.340332,0.8496094,0.6704102,1.2900391,0.9902344
		c0.6796875,0.5605469,1.3896484,1.0795898,2.1298828,1.5595703c0.7402344,0.4804688,1.4492188,1.0004883,2.1298828,1.5600586
		c0.3603516,0.3208008,0.6904297,0.6508789,0.9902344,0.9902344c0.2998047,0.340332,0.5898438,0.7104492,0.8701172,1.1098633
		c0.7998047,1.0405273,1.2001953,2.1704102,1.2001953,3.3901367c0,1.2207031-0.2802734,2.4101562-0.8398438,3.5698242
		c-0.5205078,1.0800781-1.28125,2.0605469-2.2802734,2.9399414c-0.7197266,0.6000977-1.4404297,1.190918-2.1601562,1.7700195
		c-0.7197266,0.5805664-1.4199219,1.1699219-2.0996094,1.7700195c-1.4013672,1.2397461-2.9804688,1.4599609-4.7402344,0.6601562
		c-0.1601562-0.0795898-0.3105469-0.1499023-0.4501953-0.2099609c-0.140625-0.0600586-0.2910156-0.1293945-0.4501953-0.2099609
		c-0.6396484-0.2792969-1.2597656-0.2192383-1.859375,0.1796875c-0.2402344,0.1606445-0.4208984,0.2607422-0.5400391,0.300293
		c-0.1201172,0.0400391-0.2509766,0.0805664-0.390625,0.1201172c-0.140625,0.0400391-0.25,0.0205078-0.3300781-0.0600586
		c-0.1992188-0.159668-0.2490234-0.300293-0.1494141-0.4199219c0.0986328-0.1201172,0.2099609-0.2402344,0.3300781-0.3603516
		c0.0390625-0.0795898,0.0791016-0.1293945,0.1201172-0.1499023c0.0390625-0.0195312,0.0791016-0.0498047,0.1191406-0.0898438
		c0.6796875-0.5595703,1.359375-1.1196289,2.0400391-1.6801758c0.6796875-0.5595703,1.359375-1.1191406,2.0400391-1.6801758
		c0.2001953-0.1992188,0.4599609-0.3989258,0.7802734-0.5996094c0.9199219-0.6796875,1.9199219-0.7802734,3-0.300293
		c0.2792969,0.1606445,0.5595703,0.3105469,0.8398438,0.4501953
		C245.9794922,38.059082,246.3203125,38.0888672,246.7207031,38.0083008z"/>
</g>
<g>
	<path d="M237.5717773,10.3476562c0.956543,0.7285156,1.5800781,1.3037109,1.8701172,1.7246094
		c0.2905273,0.421875,0.4355469,0.8828125,0.4355469,1.3837891c0,0.8310547-0.4296875,1.8447266-1.2895508,3.0400391
		s-2.0126953,2.3515625-3.4584961,3.4667969l-0.9223633-1.1269531c0.7514648-0.5810547,1.3549805-1.2099609,1.8105469-1.8876953
		c0.4550781-0.6767578,0.7856445-1.4316406,0.9907227-2.2626953c-0.6147461-0.3867188-1.0478516-0.7226562-1.2983398-1.0078125
		c-0.2504883-0.2841797-0.3754883-0.5810547-0.3754883-0.8876953c0-0.2275391,0.0737305-0.4472656,0.222168-0.6582031
		c0.1474609-0.2099609,0.4951172-0.5380859,1.0415039-0.9814453L237.5717773,10.3476562z"/>
</g>
</svg>
